<svg xmlns="http://www.w3.org/2000/svg" xmlns:xlink="http://www.w3.org/1999/xlink" viewBox="0 0 163.3 309.03">
    <defs>
      <style>
        .cls-1 {
          fill: url(#radial-gradient-10);
        }

        .cls-2 {
          fill: url(#linear-gradient-49);
        }

        .cls-2, .cls-3, .cls-4, .cls-5, .cls-6, .cls-7, .cls-8, .cls-9, .cls-10, .cls-11, .cls-12, .cls-13, .cls-14, .cls-15, .cls-16, .cls-17, .cls-18, .cls-19, .cls-20, .cls-21, .cls-22, .cls-23, .cls-24, .cls-25, .cls-26 {
          mix-blend-mode: color-burn;
        }

        .cls-2, .cls-3, .cls-4, .cls-7, .cls-10, .cls-11, .cls-17, .cls-18, .cls-25, .cls-26 {
          opacity: .7;
        }

        .cls-27 {
          fill: url(#_Áåçûìÿííûé_ãðàäèåíò_56-16);
        }

        .cls-28 {
          fill: url(#_Áåçûìÿííûé_ãðàäèåíò_56-6);
        }

        .cls-3 {
          fill: url(#linear-gradient-20);
        }

        .cls-29 {
          fill: url(#_Áåçûìÿííûé_ãðàäèåíò_56);
        }

        .cls-30 {
          fill: url(#linear-gradient-56);
        }

        .cls-30, .cls-31, .cls-32, .cls-33, .cls-34, .cls-35, .cls-36, .cls-37, .cls-38, .cls-39, .cls-40, .cls-41, .cls-42, .cls-43, .cls-44, .cls-45, .cls-46, .cls-47, .cls-48, .cls-49, .cls-50, .cls-51, .cls-52, .cls-53 {
          mix-blend-mode: screen;
        }

        .cls-30, .cls-31, .cls-32, .cls-35, .cls-36, .cls-37, .cls-39, .cls-41, .cls-43, .cls-44, .cls-45, .cls-46, .cls-47, .cls-48, .cls-50, .cls-51, .cls-53 {
          opacity: .8;
        }

        .cls-54 {
          fill: url(#_Áåçûìÿííûé_ãðàäèåíò_135-3);
        }

        .cls-4 {
          fill: url(#linear-gradient-38);
        }

        .cls-55 {
          fill: url(#_Áåçûìÿííûé_ãðàäèåíò_56-3);
        }

        .cls-56 {
          fill: url(#_Áåçûìÿííûé_ãðàäèåíò_56-12);
        }

        .cls-5 {
          fill: url(#linear-gradient-16);
        }

        .cls-5, .cls-19 {
          opacity: .2;
        }

        .cls-57 {
          fill: url(#linear-gradient-42);
        }

        .cls-58 {
          fill: url(#_Áåçûìÿííûé_ãðàäèåíò_56-15);
        }

        .cls-59 {
          fill: url(#linear-gradient-46);
        }

        .cls-31 {
          fill: url(#linear-gradient-4);
        }

        .cls-60 {
          fill: url(#_Áåçûìÿííûé_ãðàäèåíò_56-17);
        }

        .cls-32 {
          fill: url(#linear-gradient-59);
        }

        .cls-61 {
          fill: url(#_Áåçûìÿííûé_ãðàäèåíò_56-9);
        }

        .cls-62 {
          fill: url(#linear-gradient-2);
        }

        .cls-63 {
          fill: url(#linear-gradient-64);
        }

        .cls-64 {
          fill: url(#radial-gradient-9);
        }

        .cls-65 {
          fill: url(#linear-gradient-43);
        }

        .cls-66 {
          fill: url(#linear-gradient-25);
        }

        .cls-67 {
          fill: url(#_Áåçûìÿííûé_ãðàäèåíò_56-18);
        }

        .cls-68 {
          fill: url(#linear-gradient-10);
        }

        .cls-69 {
          fill: url(#_Áåçûìÿííûé_ãðàäèåíò_56-19);
        }

        .cls-33, .cls-34, .cls-6, .cls-8, .cls-9, .cls-12, .cls-13, .cls-14, .cls-15, .cls-38, .cls-40, .cls-42, .cls-20, .cls-49, .cls-22, .cls-52, .cls-23, .cls-24 {
          opacity: .5;
        }

        .cls-70 {
          fill: url(#_Áåçûìÿííûé_ãðàäèåíò_135-4);
        }

        .cls-71 {
          fill: url(#radial-gradient-14);
        }

        .cls-34 {
          fill: url(#linear-gradient-61);
        }

        .cls-6 {
          fill: url(#linear-gradient-23);
        }

        .cls-72 {
          fill: #fff;
        }

        .cls-73 {
          fill: url(#radial-gradient-16);
        }

        .cls-74 {
          fill: url(#_Áåçûìÿííûé_ãðàäèåíò_135-2);
        }

        .cls-7 {
          fill: url(#linear-gradient-40);
        }

        .cls-8 {
          fill: url(#linear-gradient-8);
        }

        .cls-9 {
          fill: url(#linear-gradient-13);
        }

        .cls-35 {
          fill: url(#linear-gradient-55);
        }

        .cls-75 {
          fill: url(#radial-gradient-5);
        }

        .cls-36 {
          fill: url(#linear-gradient-50);
        }

        .cls-11 {
          fill: url(#linear-gradient-29);
        }

        .cls-76 {
          fill: url(#radial-gradient);
        }

        .cls-77 {
          fill: url(#radial-gradient-3);
        }

        .cls-78 {
          fill: url(#_Áåçûìÿííûé_ãðàäèåíò_56-2);
        }

        .cls-79 {
          fill: url(#linear-gradient-34);
        }

        .cls-12 {
          fill: url(#linear-gradient-11);
        }

        .cls-80 {
          fill: url(#_Áåçûìÿííûé_ãðàäèåíò_56-8);
        }

        .cls-13 {
          fill: url(#linear-gradient-14);
        }

        .cls-81 {
          fill: url(#_Áåçûìÿííûé_ãðàäèåíò_50-3);
        }

        .cls-82 {
          fill: url(#linear-gradient-22);
        }

        .cls-83 {
          fill: url(#linear-gradient-24);
        }

        .cls-37 {
          fill: url(#linear-gradient-5);
        }

        .cls-14 {
          fill: url(#linear-gradient-65);
        }

        .cls-84 {
          isolation: isolate;
        }

        .cls-15 {
          fill: url(#linear-gradient-3);
        }

        .cls-85 {
          fill: url(#radial-gradient-11);
        }

        .cls-86 {
          fill: url(#linear-gradient-33);
        }

        .cls-87 {
          fill: url(#linear-gradient-51);
        }

        .cls-16 {
          fill: url(#linear-gradient-47);
          opacity: .6;
        }

        .cls-17 {
          fill: url(#linear-gradient-27);
        }

        .cls-38 {
          fill: url(#linear-gradient-45);
        }

        .cls-88 {
          fill: url(#_Áåçûìÿííûé_ãðàäèåíò_56-14);
        }

        .cls-39 {
          fill: url(#linear-gradient-37);
        }

        .cls-89 {
          fill: url(#radial-gradient-8);
        }

        .cls-90 {
          fill: url(#radial-gradient-2);
        }

        .cls-91 {
          fill: url(#linear-gradient-62);
        }

        .cls-18 {
          fill: url(#linear-gradient-12);
        }

        .cls-92 {
          fill: url(#radial-gradient-4);
        }

        .cls-93 {
          fill: url(#linear-gradient-7);
        }

        .cls-94 {
          fill: url(#linear-gradient-9);
        }

        .cls-19 {
          fill: url(#linear-gradient-67);
        }

        .cls-95 {
          fill: url(#_Áåçûìÿííûé_ãðàäèåíò_56-7);
        }

        .cls-96 {
          fill: url(#linear-gradient-19);
        }

        .cls-97 {
          fill: url(#radial-gradient-12);
        }

        .cls-98 {
          fill: url(#linear-gradient-6);
        }

        .cls-40 {
          fill: url(#linear-gradient-54);
        }

        .cls-41 {
          fill: url(#linear-gradient-39);
        }

        .cls-99 {
          fill: url(#_Áåçûìÿííûé_ãðàäèåíò_135-5);
        }

        .cls-100 {
          fill: url(#_Áåçûìÿííûé_ãðàäèåíò_135-8);
        }

        .cls-42 {
          fill: url(#linear-gradient-44);
        }

        .cls-101 {
          fill: url(#_Áåçûìÿííûé_ãðàäèåíò_50-2);
        }

        .cls-44 {
          fill: url(#linear-gradient-15);
        }

        .cls-45 {
          fill: url(#linear-gradient-30);
        }

        .cls-102 {
          fill: url(#radial-gradient-15);
        }

        .cls-103 {
          fill: url(#_Áåçûìÿííûé_ãðàäèåíò_50);
        }

        .cls-46 {
          fill: url(#linear-gradient-18);
        }

        .cls-47 {
          fill: url(#linear-gradient-26);
        }

        .cls-48 {
          fill: url(#linear-gradient-28);
        }

        .cls-104 {
          fill: url(#_Áåçûìÿííûé_ãðàäèåíò_135);
        }

        .cls-20 {
          fill: url(#linear-gradient-32);
        }

        .cls-49 {
          fill: url(#linear-gradient-53);
        }

        .cls-105 {
          fill: url(#_Áåçûìÿííûé_ãðàäèåíò_56-4);
        }

        .cls-50 {
          fill: url(#linear-gradient-35);
        }

        .cls-106 {
          fill: url(#radial-gradient-6);
        }

        .cls-107 {
          fill: url(#_Áåçûìÿííûé_ãðàäèåíò_135-7);
        }

        .cls-108 {
          fill: url(#linear-gradient-48);
        }

        .cls-109 {
          fill: url(#_Áåçûìÿííûé_ãðàäèåíò_56-5);
        }

        .cls-110 {
          fill: url(#_Áåçûìÿííûé_ãðàäèåíò_56-11);
        }

        .cls-111 {
          fill: url(#linear-gradient-41);
        }

        .cls-21 {
          fill: url(#linear-gradient-66);
          opacity: .4;
        }

        .cls-51 {
          fill: url(#linear-gradient-17);
        }

        .cls-112 {
          fill: url(#_Áåçûìÿííûé_ãðàäèåíò_56-13);
        }

        .cls-113 {
          fill: url(#radial-gradient-7);
        }

        .cls-114 {
          fill: url(#_Áåçûìÿííûé_ãðàäèåíò_135-6);
        }

        .cls-115 {
          fill: url(#radial-gradient-13);
        }

        .cls-116 {
          fill: url(#linear-gradient);
        }

        .cls-117 {
          fill: url(#linear-gradient-31);
        }

        .cls-22 {
          fill: url(#linear-gradient-60);
        }

        .cls-52 {
          fill: url(#linear-gradient-52);
        }

        .cls-118 {
          fill: url(#linear-gradient-63);
        }

        .cls-119 {
          fill: url(#_Áåçûìÿííûé_ãðàäèåíò_56-10);
        }

        .cls-23 {
          fill: url(#linear-gradient-57);
        }

        .cls-25 {
          fill: url(#linear-gradient-58);
        }

        .cls-26 {
          fill: url(#linear-gradient-36);
        }

        .cls-53 {
          fill: url(#linear-gradient-21);
        }
      </style>
      <linearGradient id="_Áåçûìÿííûé_ãðàäèåíò_56" data-name="Áåçûìÿííûé ãðàäèåíò 56" x1="54.82" y1="207.32" x2="28.98" y2="207.32" gradientUnits="userSpaceOnUse">
        <stop offset="0" stop-color="#b6ace0"/>
        <stop offset=".98" stop-color="#e2dceb"/>
      </linearGradient>
      <linearGradient id="linear-gradient" x1="54.82" y1="207.98" x2="28.98" y2="207.98" gradientUnits="userSpaceOnUse">
        <stop offset="0" stop-color="#7c68c0"/>
        <stop offset=".21" stop-color="#7f6bc1"/>
        <stop offset=".41" stop-color="#8977c6"/>
        <stop offset=".61" stop-color="#9a8bce"/>
        <stop offset=".81" stop-color="#b2a6d9"/>
        <stop offset="1" stop-color="#d0c9e8"/>
      </linearGradient>
      <linearGradient id="_Áåçûìÿííûé_ãðàäèåíò_56-2" data-name="Áåçûìÿííûé ãðàäèåíò 56" x1="723.26" y1="2028.18" x2="713.6" y2="2028.18" gradientTransform="translate(-1300.84 1820.96) rotate(-123.1) scale(.84 1)" xlink:href="#_Áåçûìÿííûé_ãðàäèåíò_56"/>
      <linearGradient id="linear-gradient-2" x1="81.09" y1="207.16" x2="55.14" y2="207.16" gradientUnits="userSpaceOnUse">
        <stop offset=".43" stop-color="#7c68c0"/>
        <stop offset=".55" stop-color="#7f6bc1"/>
        <stop offset=".66" stop-color="#8977c6"/>
        <stop offset=".78" stop-color="#9a8bce"/>
        <stop offset=".89" stop-color="#b2a6d9"/>
        <stop offset="1" stop-color="#d0c9e8"/>
      </linearGradient>
      <radialGradient id="radial-gradient" cx="-153.12" cy="177.53" fx="-153.12" fy="177.53" r="4.6" gradientTransform="translate(242.97 73.52) rotate(13)" gradientUnits="userSpaceOnUse">
        <stop offset="0" stop-color="#e2dceb"/>
        <stop offset="1" stop-color="#b6ace0"/>
      </radialGradient>
      <linearGradient id="linear-gradient-3" x1="-147.82" y1="178.18" x2="-155.72" y2="178.18" gradientTransform="translate(242.97 74.19) rotate(13)" xlink:href="#linear-gradient"/>
      <radialGradient id="radial-gradient-2" cx="86.13" cy="297.12" fx="86.13" fy="297.12" r="16.14" gradientTransform="translate(0 -.67)" gradientUnits="userSpaceOnUse">
        <stop offset="0" stop-color="#ffd328"/>
        <stop offset="1" stop-color="#ffa700"/>
      </radialGradient>
      <radialGradient id="radial-gradient-3" cx="90.14" cy="306.43" fx="90.14" fy="306.43" r="14.66" gradientTransform="translate(0 -.67)" gradientUnits="userSpaceOnUse">
        <stop offset=".2" stop-color="#603082"/>
        <stop offset=".99" stop-color="#2a0e51"/>
      </radialGradient>
      <linearGradient id="linear-gradient-4" x1="71.77" y1="294.63" x2="99.62" y2="294.63" gradientUnits="userSpaceOnUse">
        <stop offset="0" stop-color="#ffaeae"/>
        <stop offset=".5" stop-color="#815858"/>
        <stop offset="1" stop-color="#000"/>
      </linearGradient>
      <radialGradient id="radial-gradient-4" cx="97.99" cy="290.54" fx="97.99" fy="290.54" r="4.25" xlink:href="#radial-gradient-3"/>
      <linearGradient id="_Áåçûìÿííûé_ãðàäèåíò_56-3" data-name="Áåçûìÿííûé ãðàäèåíò 56" x1="92.71" y1="289.52" x2="103.26" y2="289.52" xlink:href="#_Áåçûìÿííûé_ãðàäèåíò_56"/>
      <radialGradient id="radial-gradient-5" cx="97.95" cy="289.52" fx="97.95" fy="289.52" r="2.96" xlink:href="#radial-gradient-3"/>
      <radialGradient id="radial-gradient-6" cx="258.56" cy="345.4" fx="258.56" fy="345.4" r="16.14" gradientTransform="translate(-189.95 -7.98) rotate(-8.24)" xlink:href="#radial-gradient-2"/>
      <radialGradient id="radial-gradient-7" cx="262.56" cy="354.71" fx="262.56" fy="354.71" r="14.66" gradientTransform="translate(-189.95 -7.98) rotate(-8.24)" xlink:href="#radial-gradient-3"/>
      <linearGradient id="linear-gradient-5" x1="244.29" y1="342.91" x2="272.14" y2="342.91" gradientTransform="translate(-189.95 -7.31) rotate(-8.24)" xlink:href="#linear-gradient-4"/>
      <radialGradient id="radial-gradient-8" cx="270.41" cy="338.82" fx="270.41" fy="338.82" r="4.25" gradientTransform="translate(-189.95 -7.98) rotate(-8.24)" xlink:href="#radial-gradient-3"/>
      <linearGradient id="_Áåçûìÿííûé_ãðàäèåíò_56-4" data-name="Áåçûìÿííûé ãðàäèåíò 56" x1="265.23" y1="337.8" x2="275.78" y2="337.8" gradientTransform="translate(-189.95 -7.31) rotate(-8.24)" xlink:href="#_Áåçûìÿííûé_ãðàäèåíò_56"/>
      <radialGradient id="radial-gradient-9" cx="270.37" cy="337.8" fx="270.37" fy="337.8" r="2.96" gradientTransform="translate(-189.95 -7.98) rotate(-8.24)" xlink:href="#radial-gradient-3"/>
      <linearGradient id="_Áåçûìÿííûé_ãðàäèåíò_56-5" data-name="Áåçûìÿííûé ãðàäèåíò 56" x1="96.44" y1="248.41" x2="86.78" y2="248.41" xlink:href="#_Áåçûìÿííûé_ãðàäèåíò_56"/>
      <linearGradient id="linear-gradient-6" x1="96.44" y1="248.39" x2="89.36" y2="248.39" xlink:href="#linear-gradient"/>
      <linearGradient id="_Áåçûìÿííûé_ãðàäèåíò_56-6" data-name="Áåçûìÿííûé ãðàäèåíò 56" x1="575.66" y1="545.27" x2="566" y2="545.27" gradientTransform="translate(-671.69 80.76) rotate(-29.35)" xlink:href="#_Áåçûìÿííûé_ãðàäèåíò_56"/>
      <linearGradient id="linear-gradient-7" x1="575.66" y1="545.25" x2="568.58" y2="545.25" gradientTransform="translate(-671.69 80.76) rotate(-29.35)" xlink:href="#linear-gradient"/>
      <radialGradient id="radial-gradient-10" cx="87.32" cy="261.83" fx="87.32" fy="261.83" r="4.6" gradientTransform="translate(0 -.67)" xlink:href="#radial-gradient"/>
      <linearGradient id="linear-gradient-8" x1="92.76" y1="262.47" x2="84.87" y2="262.47" xlink:href="#linear-gradient"/>
      <linearGradient id="_Áåçûìÿííûé_ãðàäèåíò_56-7" data-name="Áåçûìÿííûé ãðàäèåíò 56" x1="514.17" y1="372.52" x2="504.51" y2="372.52" gradientTransform="translate(-411.27 21.17) rotate(-17.17) scale(.84 1)" xlink:href="#_Áåçûìÿííûé_ãðàäèåíò_56"/>
      <linearGradient id="linear-gradient-9" x1="514.17" y1="372.49" x2="507.09" y2="372.49" gradientTransform="translate(-411.27 21.17) rotate(-17.17) scale(.84 1)" xlink:href="#linear-gradient"/>
      <linearGradient id="_Áåçûìÿííûé_ãðàäèåíò_56-8" data-name="Áåçûìÿííûé ãðàäèåíò 56" x1="917.78" y1="731.39" x2="908.12" y2="731.39" gradientTransform="translate(-942.12 265.68) rotate(-43.02) scale(.84 1)" xlink:href="#_Áåçûìÿííûé_ãðàäèåíò_56"/>
      <linearGradient id="linear-gradient-10" x1="917.78" y1="731.37" x2="910.7" y2="731.37" gradientTransform="translate(-942.12 265.68) rotate(-43.02) scale(.84 1)" xlink:href="#linear-gradient"/>
      <radialGradient id="radial-gradient-11" cx="400.88" cy="386.43" fx="400.88" fy="386.43" r="4.6" gradientTransform="translate(-388.39 13.24) rotate(-17.18)" xlink:href="#radial-gradient"/>
      <linearGradient id="linear-gradient-11" x1="406.53" y1="387.1" x2="398.63" y2="387.1" gradientTransform="translate(-388.39 13.91) rotate(-17.18)" xlink:href="#linear-gradient"/>
      <linearGradient id="_Áåçûìÿííûé_ãðàäèåíò_135" data-name="Áåçûìÿííûé ãðàäèåíò 135" x1="129.91" y1="216.41" x2="76.38" y2="216.41" gradientUnits="userSpaceOnUse">
        <stop offset="0" stop-color="#ffa700"/>
        <stop offset="1" stop-color="#ffd328"/>
      </linearGradient>
      <linearGradient id="_Áåçûìÿííûé_ãðàäèåíò_56-9" data-name="Áåçûìÿííûé ãðàäèåíò 56" x1="123.32" y1="237.53" x2="78.84" y2="237.53" xlink:href="#_Áåçûìÿííûé_ãðàäèåíò_56"/>
      <linearGradient id="linear-gradient-12" x1="105.92" y1="218.4" x2="129.91" y2="218.4" xlink:href="#linear-gradient"/>
      <linearGradient id="linear-gradient-13" x1="105.92" y1="218.76" x2="129.91" y2="218.76" xlink:href="#linear-gradient"/>
      <linearGradient id="linear-gradient-14" x1="-44.61" y1="181.83" x2="-44.61" y2="169.14" gradientTransform="translate(167.15 31.58) rotate(7.76)" xlink:href="#linear-gradient"/>
      <linearGradient id="linear-gradient-15" x1="76.38" y1="212.85" x2="107.2" y2="212.85" xlink:href="#linear-gradient-4"/>
      <linearGradient id="linear-gradient-16" x1="-55.02" y1="174.92" x2="-22.63" y2="174.92" gradientTransform="translate(167.15 31.58) rotate(7.76)" xlink:href="#linear-gradient"/>
      <linearGradient id="linear-gradient-17" x1="-53.48" y1="181.29" x2="-53.48" y2="175.15" gradientTransform="translate(167.15 31.58) rotate(7.76)" xlink:href="#linear-gradient-4"/>
      <linearGradient id="linear-gradient-18" x1="-34.64" y1="190.93" x2="-22.63" y2="190.93" gradientTransform="translate(167.15 31.58) rotate(7.76)" xlink:href="#linear-gradient-4"/>
      <linearGradient id="linear-gradient-19" x1="-60.23" y1="176.9" x2="-24.69" y2="176.9" gradientTransform="translate(167.15 31.58) rotate(7.76)" gradientUnits="userSpaceOnUse">
        <stop offset="0" stop-color="#603082"/>
        <stop offset=".58" stop-color="#2a0e51"/>
      </linearGradient>
      <linearGradient id="_Áåçûìÿííûé_ãðàäèåíò_56-10" data-name="Áåçûìÿííûé ãðàäèåíò 56" x1="-60.23" y1="175.52" x2="-24.69" y2="175.52" gradientTransform="translate(167.15 31.58) rotate(7.76)" xlink:href="#_Áåçûìÿííûé_ãðàäèåíò_56"/>
      <linearGradient id="linear-gradient-20" x1="-40.49" y1="177.76" x2="-40.49" y2="166.47" gradientTransform="translate(167.15 31.58) rotate(7.76)" xlink:href="#linear-gradient"/>
      <linearGradient id="linear-gradient-21" x1="-60.23" y1="177.17" x2="-50.71" y2="177.17" gradientTransform="translate(167.15 31.58) rotate(7.76)" xlink:href="#linear-gradient-4"/>
      <linearGradient id="linear-gradient-22" x1="-1293.57" y1="893.67" x2="-1275.43" y2="893.67" gradientTransform="translate(1062.19 1371.15) rotate(83.29)" gradientUnits="userSpaceOnUse">
        <stop offset="0" stop-color="#bbdafc"/>
        <stop offset="1" stop-color="#b79eff"/>
      </linearGradient>
      <linearGradient id="linear-gradient-23" x1="-1293.57" y1="889.44" x2="-1277.09" y2="889.44" gradientTransform="translate(1062.19 1371.15) rotate(83.29)" xlink:href="#linear-gradient"/>
      <linearGradient id="linear-gradient-24" x1="-1288.62" y1="902.44" x2="-1288.62" y2="884.9" gradientTransform="translate(1062.19 1371.15) rotate(83.29)" gradientUnits="userSpaceOnUse">
        <stop offset=".49" stop-color="#b3819d"/>
        <stop offset="1" stop-color="#785ca6"/>
      </linearGradient>
      <linearGradient id="_Áåçûìÿííûé_ãðàäèåíò_56-11" data-name="Áåçûìÿííûé ãðàäèåíò 56" x1="-1297.75" y1="896.39" x2="-1279.48" y2="896.39" gradientTransform="translate(1062.19 1371.15) rotate(83.29)" xlink:href="#_Áåçûìÿííûé_ãðàäèåíò_56"/>
      <linearGradient id="_Áåçûìÿííûé_ãðàäèåíò_135-2" data-name="Áåçûìÿííûé ãðàäèåíò 135" x1="149.07" y1="228.32" x2="149.07" y2="218.57" gradientTransform="translate(-144.9 -18.24) rotate(-6.71)" xlink:href="#_Áåçûìÿííûé_ãðàäèåíò_135"/>
      <linearGradient id="linear-gradient-25" x1="149.64" y1="228.32" x2="149.64" y2="218.57" gradientTransform="translate(-144.9 -18.24) rotate(-6.71)" xlink:href="#linear-gradient"/>
      <linearGradient id="linear-gradient-26" x1="148.02" y1="218.31" x2="148.02" y2="223.02" gradientTransform="translate(-144.9 -18.24) rotate(-6.71)" xlink:href="#linear-gradient-4"/>
      <linearGradient id="_Áåçûìÿííûé_ãðàäèåíò_135-3" data-name="Áåçûìÿííûé ãðàäèåíò 135" x1="134.69" y1="227.64" x2="134.69" y2="218.51" gradientTransform="translate(-144.9 -18.24) rotate(-6.71)" xlink:href="#_Áåçûìÿííûé_ãðàäèåíò_135"/>
      <linearGradient id="linear-gradient-27" x1="140.55" y1="222.93" x2="129.68" y2="226.05" gradientTransform="translate(-144.9 -18.24) rotate(-6.71)" xlink:href="#linear-gradient"/>
      <linearGradient id="linear-gradient-28" x1="131.74" y1="217.62" x2="131.74" y2="220.87" gradientTransform="translate(-144.9 -18.24) rotate(-6.71)" xlink:href="#linear-gradient-4"/>
      <linearGradient id="_Áåçûìÿííûé_ãðàäèåíò_135-4" data-name="Áåçûìÿííûé ãðàäèåíò 135" x1="128.93" y1="234.95" x2="128.93" y2="227.5" gradientTransform="translate(-144.9 -18.24) rotate(-6.71)" xlink:href="#_Áåçûìÿííûé_ãðàäèåíò_135"/>
      <linearGradient id="linear-gradient-29" x1="135.49" y1="231.01" x2="123.24" y2="234.52" gradientTransform="translate(-144.9 -18.24) rotate(-6.71)" xlink:href="#linear-gradient"/>
      <linearGradient id="linear-gradient-30" x1="126" y1="226.55" x2="126" y2="228.88" gradientTransform="translate(-144.9 -18.24) rotate(-6.71)" xlink:href="#linear-gradient-4"/>
      <linearGradient id="linear-gradient-31" x1="824.42" y1="1216.16" x2="842.57" y2="1216.16" gradientTransform="translate(-1206.94 855.29) rotate(-79.46)" xlink:href="#linear-gradient-22"/>
      <linearGradient id="linear-gradient-32" x1="824.42" y1="1211.92" x2="840.9" y2="1211.92" gradientTransform="translate(-1206.94 855.29) rotate(-79.46)" xlink:href="#linear-gradient"/>
      <linearGradient id="linear-gradient-33" x1="829.38" y1="1224.93" x2="829.38" y2="1207.39" gradientTransform="translate(-1206.94 855.29) rotate(-79.46)" xlink:href="#linear-gradient-24"/>
      <linearGradient id="_Áåçûìÿííûé_ãðàäèåíò_56-12" data-name="Áåçûìÿííûé ãðàäèåíò 56" x1="820.24" y1="1218.88" x2="838.51" y2="1218.88" gradientTransform="translate(-1206.94 855.29) rotate(-79.46)" xlink:href="#_Áåçûìÿííûé_ãðàäèåíò_56"/>
      <linearGradient id="_Áåçûìÿííûé_ãðàäèåíò_135-5" data-name="Áåçûìÿííûé ãðàäèåíò 135" x1="-172.42" y1="2346.51" x2="-172.42" y2="2336.75" gradientTransform="translate(-465.31 2540.44) rotate(-169.46)" xlink:href="#_Áåçûìÿííûé_ãðàäèåíò_135"/>
      <linearGradient id="linear-gradient-34" x1="-171.85" y1="2346.5" x2="-171.85" y2="2336.76" gradientTransform="translate(-465.31 2540.44) rotate(-169.46)" xlink:href="#linear-gradient"/>
      <linearGradient id="linear-gradient-35" x1="-173.47" y1="2336.49" x2="-173.47" y2="2341.21" gradientTransform="translate(-465.31 2540.44) rotate(-169.46)" xlink:href="#linear-gradient-4"/>
      <linearGradient id="_Áåçûìÿííûé_ãðàäèåíò_135-6" data-name="Áåçûìÿííûé ãðàäèåíò 135" x1="-186.8" y1="2345.83" x2="-186.8" y2="2336.69" gradientTransform="translate(-465.31 2540.44) rotate(-169.46)" xlink:href="#_Áåçûìÿííûé_ãðàäèåíò_135"/>
      <linearGradient id="linear-gradient-36" x1="-180.94" y1="2341.12" x2="-191.81" y2="2344.24" gradientTransform="translate(-465.31 2540.44) rotate(-169.46)" xlink:href="#linear-gradient"/>
      <linearGradient id="linear-gradient-37" x1="-189.75" y1="2335.81" x2="-189.75" y2="2339.06" gradientTransform="translate(-465.31 2540.44) rotate(-169.46)" xlink:href="#linear-gradient-4"/>
      <linearGradient id="_Áåçûìÿííûé_ãðàäèåíò_135-7" data-name="Áåçûìÿííûé ãðàäèåíò 135" x1="-192.56" y1="2353.13" x2="-192.56" y2="2345.68" gradientTransform="translate(-465.31 2540.44) rotate(-169.46)" xlink:href="#_Áåçûìÿííûé_ãðàäèåíò_135"/>
      <linearGradient id="linear-gradient-38" x1="-186.01" y1="2349.2" x2="-198.25" y2="2352.71" gradientTransform="translate(-465.31 2540.44) rotate(-169.46)" xlink:href="#linear-gradient"/>
      <linearGradient id="linear-gradient-39" x1="-195.49" y1="2344.74" x2="-195.49" y2="2347.07" gradientTransform="translate(-465.31 2540.44) rotate(-169.46)" xlink:href="#linear-gradient-4"/>
      <linearGradient id="_Áåçûìÿííûé_ãðàäèåíò_56-13" data-name="Áåçûìÿííûé ãðàäèåíò 56" x1="161.43" y1="72.38" x2="197.54" y2="72.38" gradientTransform="translate(-83.94 -9.64) rotate(-4.21)" xlink:href="#_Áåçûìÿííûé_ãðàäèåíò_56"/>
      <linearGradient id="_Áåçûìÿííûé_ãðàäèåíò_56-14" data-name="Áåçûìÿííûé ãðàäèåíò 56" x1="192.84" y1="34.42" x2="210.67" y2="34.42" gradientTransform="translate(-83.94 -9.64) rotate(-4.21)" xlink:href="#_Áåçûìÿííûé_ãðàäèåíò_56"/>
      <linearGradient id="linear-gradient-40" x1="192.84" y1="34.42" x2="210.67" y2="34.42" gradientTransform="translate(-83.94 -9.64) rotate(-4.21)" xlink:href="#linear-gradient"/>
      <linearGradient id="_Áåçûìÿííûé_ãðàäèåíò_135-8" data-name="Áåçûìÿííûé ãðàäèåíò 135" x1="230.38" y1="165.36" x2="93.49" y2="165.36" gradientTransform="translate(-83.94 -9.64) rotate(-4.21)" xlink:href="#_Áåçûìÿííûé_ãðàäèåíò_135"/>
      <linearGradient id="_Áåçûìÿííûé_ãðàäèåíò_56-15" data-name="Áåçûìÿííûé ãðàäèåíò 56" x1="229.34" y1="116.09" x2="93.44" y2="116.09" gradientTransform="translate(-83.94 -9.64) rotate(-4.21)" xlink:href="#_Áåçûìÿííûé_ãðàäèåíò_56"/>
      <linearGradient id="linear-gradient-41" x1="173.57" y1="159.76" x2="226.19" y2="159.76" gradientTransform="translate(-83.94 -9.64) rotate(-4.21)" gradientUnits="userSpaceOnUse">
        <stop offset="0" stop-color="#b3819d"/>
        <stop offset="1" stop-color="#785ca6"/>
      </linearGradient>
      <linearGradient id="linear-gradient-42" x1="180.55" y1="152.79" x2="205.39" y2="152.79" gradientTransform="translate(-83.94 -9.64) rotate(-4.21)" xlink:href="#linear-gradient-4"/>
      <linearGradient id="linear-gradient-43" x1="175.99" y1="165.67" x2="198.21" y2="165.67" gradientTransform="translate(-83.94 -9.64) rotate(-4.21)" xlink:href="#linear-gradient-4"/>
      <linearGradient id="_Áåçûìÿííûé_ãðàäèåíò_50" data-name="Áåçûìÿííûé ãðàäèåíò 50" x1="178.81" y1="159.78" x2="226.19" y2="159.78" gradientTransform="translate(-83.94 -9.64) rotate(-4.21)" gradientUnits="userSpaceOnUse">
        <stop offset="0" stop-color="#603082"/>
        <stop offset=".99" stop-color="#2a0e51"/>
      </linearGradient>
      <linearGradient id="linear-gradient-44" x1="210.73" y1="151.23" x2="178.81" y2="151.23" gradientTransform="translate(-83.94 -9.64) rotate(-4.21)" xlink:href="#linear-gradient-4"/>
      <radialGradient id="radial-gradient-12" cx="270.61" cy="160.31" fx="270.61" fy="160.31" r="26.43" gradientTransform="translate(-106.6 -8.6) rotate(-4.21) scale(.83 1)" gradientUnits="userSpaceOnUse">
        <stop offset=".66" stop-color="#b3819d"/>
        <stop offset="1" stop-color="#785ca6"/>
      </radialGradient>
      <linearGradient id="_Áåçûìÿííûé_ãðàäèåíò_56-16" data-name="Áåçûìÿííûé ãðàäèåíò 56" x1="181.62" y1="160.32" x2="216.3" y2="160.32" gradientTransform="translate(-83.94 -9.64) rotate(-4.21)" xlink:href="#_Áåçûìÿííûé_ãðàäèåíò_56"/>
      <radialGradient id="radial-gradient-13" cx="263.63" cy="155.84" fx="263.63" fy="155.84" r="17.33" gradientTransform="translate(-106.6 -8.6) rotate(-4.21) scale(.83 1)" xlink:href="#radial-gradient-3"/>
      <linearGradient id="linear-gradient-45" x1="196.6" y1="171.76" x2="216.29" y2="171.76" gradientTransform="translate(-83.94 -9.64) rotate(-4.21)" xlink:href="#linear-gradient-4"/>
      <linearGradient id="linear-gradient-46" x1="181.62" y1="159.98" x2="210.97" y2="159.98" gradientTransform="translate(-83.94 -9.64) rotate(-4.21)" xlink:href="#linear-gradient"/>
      <linearGradient id="linear-gradient-47" x1="161.39" y1="160.85" x2="230.38" y2="160.85" gradientTransform="translate(-83.94 -9.64) rotate(-4.21)" xlink:href="#linear-gradient"/>
      <linearGradient id="linear-gradient-48" x1="96.93" y1="117.38" x2="148.48" y2="117.38" gradientTransform="translate(-83.94 -9.64) rotate(-4.21)" xlink:href="#linear-gradient-4"/>
      <linearGradient id="linear-gradient-49" x1="161.2" y1="111.85" x2="229.34" y2="111.85" gradientTransform="translate(-83.94 -9.64) rotate(-4.21)" xlink:href="#linear-gradient"/>
      <linearGradient id="linear-gradient-50" x1="93.49" y1="160.58" x2="145.64" y2="160.58" gradientTransform="translate(-83.94 -9.64) rotate(-4.21)" gradientUnits="userSpaceOnUse">
        <stop offset=".33" stop-color="#ffaeae"/>
        <stop offset=".66" stop-color="#815858"/>
        <stop offset="1" stop-color="#000"/>
      </linearGradient>
      <linearGradient id="_Áåçûìÿííûé_ãðàäèåíò_50-2" data-name="Áåçûìÿííûé ãðàäèåíò 50" x1="104.57" y1="165.03" x2="158.95" y2="165.03" xlink:href="#_Áåçûìÿííûé_ãðàäèåíò_50"/>
      <linearGradient id="linear-gradient-51" x1="104.57" y1="165.39" x2="153.56" y2="165.39" xlink:href="#linear-gradient-41"/>
      <linearGradient id="linear-gradient-52" x1="131.11" y1="185.24" x2="148.94" y2="185.24" gradientTransform="translate(-83.94 -9.64) rotate(-4.21)" xlink:href="#linear-gradient-4"/>
      <linearGradient id="linear-gradient-53" x1="104.57" y1="161.05" x2="137.02" y2="161.05" gradientTransform="translate(-83.94 -9.64) rotate(-4.21)" xlink:href="#linear-gradient-4"/>
      <radialGradient id="radial-gradient-14" cx="186.51" cy="164.49" fx="186.51" fy="164.49" r="32.67" gradientTransform="translate(-111.64 -7.68) rotate(-4.2) scale(.86 1)" gradientUnits="userSpaceOnUse">
        <stop offset=".77" stop-color="#603082"/>
        <stop offset=".99" stop-color="#2a0e51"/>
      </radialGradient>
      <linearGradient id="_Áåçûìÿííûé_ãðàäèåíò_56-17" data-name="Áåçûìÿííûé ãðàäèåíò 56" x1="114.8" y1="165.31" x2="150.64" y2="165.31" gradientTransform="translate(-83.94 -9.64) rotate(-4.21)" xlink:href="#_Áåçûìÿííûé_ãðàäèåíò_56"/>
      <radialGradient id="radial-gradient-15" cx="184.18" cy="161.62" fx="184.18" fy="161.62" r="17.53" gradientTransform="translate(-111.64 -7.68) rotate(-4.2) scale(.86 1)" xlink:href="#radial-gradient-3"/>
      <linearGradient id="linear-gradient-54" x1="124.85" y1="173.85" x2="150.64" y2="173.85" gradientTransform="translate(-83.94 -9.64) rotate(-4.21)" xlink:href="#linear-gradient-4"/>
      <linearGradient id="linear-gradient-55" x1="93.49" y1="137.9" x2="161.39" y2="137.9" gradientTransform="translate(-83.94 -9.64) rotate(-4.21)" xlink:href="#linear-gradient-4"/>
      <linearGradient id="linear-gradient-56" x1="107" y1="185.98" x2="168.69" y2="185.98" gradientTransform="translate(-83.94 -9.64) rotate(-4.21)" gradientUnits="userSpaceOnUse">
        <stop offset=".33" stop-color="#ffaeae"/>
        <stop offset=".43" stop-color="#fbabab"/>
        <stop offset=".52" stop-color="#f1a4a4"/>
        <stop offset=".6" stop-color="#df9898"/>
        <stop offset=".68" stop-color="#c78888"/>
        <stop offset=".75" stop-color="#a77272"/>
        <stop offset=".82" stop-color="#805757"/>
        <stop offset=".9" stop-color="#523838"/>
        <stop offset=".96" stop-color="#1e1414"/>
        <stop offset="1" stop-color="#000"/>
      </linearGradient>
      <linearGradient id="_Áåçûìÿííûé_ãðàäèåíò_50-3" data-name="Áåçûìÿííûé ãðàäèåíò 50" x1="107" y1="202.77" x2="230.38" y2="202.77" xlink:href="#_Áåçûìÿííûé_ãðàäèåíò_50"/>
      <linearGradient id="linear-gradient-57" x1="60.92" y1="180.43" x2="137.49" y2="180.43" xlink:href="#linear-gradient"/>
      <linearGradient id="linear-gradient-58" x1="60.92" y1="180.47" x2="137.49" y2="180.47" xlink:href="#linear-gradient"/>
      <linearGradient id="linear-gradient-59" x1="82.19" y1="123.53" x2="98.51" y2="123.53" gradientTransform="matrix(1,0,0,1,0,0)" xlink:href="#linear-gradient-56"/>
      <linearGradient id="linear-gradient-60" x1="86.04" y1="135.3" x2="141.43" y2="135.3" xlink:href="#linear-gradient"/>
      <linearGradient id="linear-gradient-61" x1="27.51" y1="98.41" x2="80.9" y2="98.41" xlink:href="#linear-gradient-4"/>
      <linearGradient id="linear-gradient-62" x1="-183.47" y1="640.02" x2="-179" y2="622.78" gradientTransform="translate(116.33 -469.21) rotate(-14.51)" xlink:href="#linear-gradient-19"/>
      <linearGradient id="_Áåçûìÿííûé_ãðàäèåíò_56-18" data-name="Áåçûìÿííûé ãðàäèåíò 56" x1="522.13" y1="332.07" x2="512.47" y2="332.07" gradientTransform="translate(-386.38 18.06) rotate(-15.8) scale(.84 1)" xlink:href="#_Áåçûìÿííûé_ãðàäèåíò_56"/>
      <linearGradient id="linear-gradient-63" x1="522.13" y1="332.04" x2="515.05" y2="332.04" gradientTransform="translate(-386.38 18.06) rotate(-15.8) scale(.84 1)" xlink:href="#linear-gradient"/>
      <linearGradient id="_Áåçûìÿííûé_ãðàäèåíò_56-19" data-name="Áåçûìÿííûé ãðàäèåíò 56" x1="946.82" y1="698.72" x2="937.16" y2="698.72" gradientTransform="translate(-923.95 249.69) rotate(-41.65) scale(.84 1)" xlink:href="#_Áåçûìÿííûé_ãðàäèåíò_56"/>
      <linearGradient id="linear-gradient-64" x1="946.82" y1="698.69" x2="939.74" y2="698.69" gradientTransform="translate(-923.95 249.69) rotate(-41.65) scale(.84 1)" xlink:href="#linear-gradient"/>
      <radialGradient id="radial-gradient-16" cx="408.42" cy="345.81" fx="408.42" fy="345.81" r="4.6" gradientTransform="translate(-364.04 11.05) rotate(-15.8)" xlink:href="#radial-gradient"/>
      <linearGradient id="linear-gradient-65" x1="414.05" y1="346.47" x2="406.15" y2="346.47" gradientTransform="translate(-364.04 11.72) rotate(-15.8)" xlink:href="#linear-gradient"/>
      <linearGradient id="linear-gradient-66" x1="85.83" y1="88.44" x2="130.48" y2="88.44" xlink:href="#linear-gradient"/>
      <linearGradient id="linear-gradient-67" x1="101.52" y1="87.35" x2="149.94" y2="87.35" xlink:href="#linear-gradient"/>
    </defs>
    <g class="cls-84">
      <g id="Layer_2" data-name="Layer 2">
        <g id="Layer_1-2" data-name="Layer 1">
          <g>
            <g>
              <g>
                <path class="cls-29" d="M51.07,214.6c-8.81-2.64-15.45-6.26-20.84-10.42-.56-.43-.91-.91-1.1-1.4-.2-.55-.19-1.1-.01-1.58.41-1.16,1.77-1.83,3.33-.83,6.54,4.24,13.37,7.61,20.44,10.26.13.06.26.11.39.16,3.13,1.17.98,4.76-2.22,3.8Z"/>
                <path class="cls-72" d="M34.96,203.49c-.12.2,3.86,2.72,8.62,4.58.28.11,3.14,1.22,3.21,1.07.15-.31-11.63-5.97-11.83-5.65Z"/>
                <path class="cls-116" d="M51.07,214.6c-8.81-2.64-15.45-6.26-20.84-10.42-.56-.43-.91-.91-1.1-1.4-.2-.55-.19-1.1-.01-1.58,1.8,2.14,7.84,8.33,19.29,10.91,3.47.78,4.66.06,4.49-1.49.13.06.26.11.39.16,3.13,1.17.98,4.76-2.22,3.8Z"/>
              </g>
              <path class="cls-78" d="M56.85,209.97c7.57-2.39,14.63-5.6,21.29-9.45,2.9-1.67,4.3,2.27,1.52,4.13-7.64,5.12-14.64,7.94-21.29,9.46-.68.16-1.28.12-1.78-.05-1.91-.66-2.25-3.29.25-4.09Z"/>
              <g class="cls-24">
                <path class="cls-62" d="M79.59,204.65c-7.64,5.12-14.65,7.94-21.29,9.46-.69.16-1.28.12-1.78-.06-.68-.24-1.17-.72-1.38-1.29.43.11.92.1,1.47-.02,6.64-1.52,13.65-4.34,21.29-9.46,1.29-.87,1.68-2.17,1.43-3.16,1.98-.07,2.6,2.97.26,4.53Z"/>
              </g>
              <g>
                <g>
                  <path class="cls-76" d="M59.38,214.1c-.57,2.48-3.04,4.02-5.52,3.45-2.48-.57-4.02-3.04-3.45-5.52.57-2.48,3.04-4.02,5.52-3.45,2.48.57,4.02,3.04,3.45,5.52Z"/>
                  <path class="cls-15" d="M58.98,214.06c-.52,2.24-2.76,3.65-5.01,3.13-1.58-.37-2.74-1.58-3.11-3.06.56.8,1.41,1.39,2.44,1.63,2.25.52,4.49-.88,5.01-3.13.15-.67.14-1.34-.02-1.96.7.93.98,2.16.7,3.39Z"/>
                </g>
                <path class="cls-72" d="M54.82,209.34c-.79-.54-2.02.1-2.64.75-.31.32-.94,1.15-.67,1.6.45.76,3.44.49,3.86-.82.17-.53-.09-1.22-.55-1.54Z"/>
              </g>
            </g>
            <g>
              <path class="cls-90" d="M110.7,303.14c0,.33,0,.67,0,1.01,0,.89-.63,1.66-1.5,1.85-16.32,3.39-28.51,2.9-38.26.11-.88-.25-1.46-1.12-1.33-2.04.03-.16.05-.32.08-.48.32-1.69,1.04-3.3,2.09-4.81,4.19-6.04,13.76-10.26,24.89-10.26.86,0,1.67.03,2.43.08,11.26.74,11.64,6.79,11.61,14.54Z"/>
              <path class="cls-77" d="M110.7,303.14c0,.33,0,.67,0,1.01,0,.89-.63,1.66-1.5,1.85-16.32,3.39-28.51,2.9-38.26.11-.88-.25-1.46-1.12-1.33-2.04.03-.16.05-.32.08-.48,8.76,3.33,27.59,3.29,41.02-.45Z"/>
              <path class="cls-31" d="M86.41,299.94c-6.18,1.43-11.88.87-14.64-1.14,4.19-6.04,13.76-10.26,24.89-10.26.86,0,1.67.03,2.43.08.21.33.36.68.44,1.06.87,3.8-5,8.39-13.12,10.27Z"/>
              <g>
                <g>
                  <path class="cls-92" d="M103.26,288.53l-8.11-1.55-.13.69c-.51.23-.98.53-1.38.92-.57.58-.9,1.38-.94,2.19,0,.37.04.76.23,1.08.22.38.63.64,1.06.76.43.13.87.15,1.32.14.51,0,1.01-.04,1.5-.16,1.32-.31,2.42-1.17,3.46-2.03.31-.25.62-.5.96-.71.67-.46,1.34-.66,2.02-.67v-.67Z"/>
                  <path class="cls-55" d="M103.26,288.53c-.67.06-1.31.24-1.88.57-.4.22-.75.51-1.1.8-1.04.86-2.14,1.72-3.46,2.03-.49.12-.99.15-1.5.16-.45,0-.89,0-1.32-.14-.43-.12-.83-.38-1.06-.76-.19-.32-.24-.71-.23-1.08.04-.81.37-1.6.94-2.19.4-.4.88-.7,1.39-.93.17-.02.33-.03.51-.04.24,0,.48-.02.73-.02,1.29,0,2.54.15,3.74.44.57.13,1.11.3,1.66.49h0c.54.19,1.07.42,1.58.67Z"/>
                </g>
                <path class="cls-75" d="M101.68,287.87c-1.51.22-3.17,1.82-3.64,2.15-.5.35-1.08.64-1.69.72-.61.07-1.28-.07-1.72-.51-.11-.1-.21-.23-.28-.37-.18-.38-.18-1.17.03-1.54.2-.37.53-.83.84-1.1.11-.1.22-.19.33-.26.24,0,.48-.02.73-.02,1.29,0,2.54.15,3.74.44.57.13,1.11.3,1.66.49Z"/>
              </g>
              <path class="cls-72" d="M79.42,293.97c2.75.75,5.59-1.26,6.43-1.86.83-.59,1.95-1.38,1.81-1.68-.37-.76-9.06,2.2-8.86,3.22.03.15.26.22.62.32Z"/>
            </g>
            <g>
              <path class="cls-106" d="M140.74,299.88c.04.33.09.66.14,1,.12.88-.39,1.74-1.22,2.05-15.67,5.69-27.8,6.96-37.85,5.6-.91-.13-1.61-.9-1.61-1.83,0-.16,0-.32.01-.49.08-1.72.55-3.42,1.38-5.05,3.28-6.58,12.15-12.13,23.17-13.72.85-.12,1.66-.21,2.41-.27,11.25-.89,12.49,5.05,13.58,12.72Z"/>
              <path class="cls-113" d="M140.74,299.88c.04.33.09.66.14,1,.12.88-.39,1.74-1.22,2.05-15.67,5.69-27.8,6.96-37.85,5.6-.91-.13-1.61-.9-1.61-1.83,0-.16,0-.32.01-.49,9.14,2.04,27.78-.7,40.53-6.33Z"/>
              <path class="cls-37" d="M116.25,300.19c-5.92,2.3-11.63,2.56-14.65.97,3.28-6.58,12.15-12.13,23.17-13.72.85-.12,1.66-.21,2.41-.27.25.3.45.62.59.98,1.4,3.63-3.75,9.02-11.51,12.05Z"/>
              <g>
                <g>
                  <path class="cls-89" d="M131.29,286.49l-8.24-.37-.03.7c-.47.3-.9.66-1.23,1.11-.48.66-.69,1.5-.61,2.3.04.37.15.75.38,1.04.27.34.72.54,1.15.6.44.07.88.02,1.32-.05.5-.08.99-.18,1.46-.37,1.26-.49,2.23-1.5,3.13-2.51.27-.29.55-.58.85-.84.6-.55,1.24-.84,1.9-.95l-.1-.66Z"/>
                  <path class="cls-105" d="M131.29,286.49c-.65.15-1.26.43-1.78.84-.36.28-.67.61-.98.95-.9,1-1.87,2.01-3.13,2.51-.47.19-.96.29-1.46.37-.44.07-.88.12-1.32.05-.44-.06-.88-.26-1.15-.6-.24-.29-.34-.67-.38-1.04-.08-.8.14-1.64.61-2.3.34-.45.77-.81,1.24-1.12.16-.04.33-.08.5-.11.24-.04.47-.09.72-.12,1.28-.18,2.54-.22,3.76-.1.58.05,1.14.13,1.71.25h0c.56.11,1.11.26,1.66.43Z"/>
                </g>
                <path class="cls-64" d="M129.63,286.05c-1.46.44-2.88,2.25-3.3,2.65-.45.42-.97.79-1.57.96-.59.16-1.28.11-1.78-.26-.12-.09-.24-.2-.33-.33-.23-.35-.34-1.13-.19-1.53.15-.4.4-.89.68-1.21.1-.12.19-.22.29-.3.24-.04.47-.09.72-.12,1.28-.18,2.54-.22,3.76-.1.58.05,1.14.13,1.71.25Z"/>
              </g>
              <path class="cls-72" d="M108.47,295.29c2.83.35,5.36-2.05,6.1-2.76.74-.7,1.73-1.65,1.55-1.92-.47-.7-8.65,3.48-8.3,4.45.05.15.29.18.66.23Z"/>
            </g>
            <g>
              <g>
                <path class="cls-109" d="M96.29,237.35c-2.53,7.65-3.92,15.31-4.41,23-.22,3.34-5.05,2.36-5.1-.98-.14-9.19,1.6-16.61,4.4-23,.28-.66.71-1.14,1.2-1.46,1.9-1.24,4.74-.08,3.91,2.44Z"/>
                <g class="cls-24">
                  <path class="cls-98" d="M96.29,237.35c-2.53,7.65-3.92,15.31-4.41,23-.28,1.43-1.4,2.05-2.52,2.02.42-.33.83-.81.85-1.48.24-7.62,1.46-15.27,4.41-23.01.61-1.61-.86-2.77-2.24-2.97,1.9-1.24,4.74-.08,3.91,2.44Z"/>
                </g>
                <path class="cls-72" d="M91.2,241.59c-.27-.06-1.72,4.49-2.12,9.6-.02.3-.27,3.36-.07,3.38.4.05,2.64-12.89,2.2-12.98Z"/>
              </g>
              <g>
                <path class="cls-28" d="M91.79,264.26c1.54,7.91,4.09,15.27,7.43,22.21,1.45,3.02-3.25,4.53-4.92,1.64-4.63-7.95-6.75-15.26-7.44-22.2-.08-.71.06-1.34.33-1.86,1.05-2.01,4.09-2.4,4.6.22Z"/>
                <g class="cls-24">
                  <path class="cls-93" d="M91.79,264.26c1.54,7.91,4.09,15.27,7.43,22.21.45,1.38-.21,2.47-1.21,3,.2-.49.33-1.11.01-1.71-3.53-6.76-6.21-14.03-7.43-22.21-.26-1.71-2.1-1.99-3.41-1.5,1.05-2.01,4.09-2.4,4.6.22Z"/>
                </g>
                <path class="cls-72" d="M89.43,270.45c-.26.08.71,4.76,2.85,9.41.13.27,1.41,3.06,1.59,2.98.38-.15-4.01-12.53-4.45-12.39Z"/>
              </g>
              <g>
                <path class="cls-1" d="M93.17,261.9c0,2.54-2.06,4.6-4.6,4.6s-4.6-2.06-4.6-4.6,2.06-4.6,4.6-4.6,4.6,2.06,4.6,4.6Z"/>
                <path class="cls-8" d="M92.76,261.95c0,2.3-1.87,4.18-4.18,4.18-1.63,0-3.03-.93-3.72-2.28.73.65,1.69,1.04,2.74,1.04,2.31,0,4.18-1.87,4.18-4.18,0-.68-.16-1.33-.46-1.9.89.75,1.44,1.88,1.44,3.15Z"/>
              </g>
              <path class="cls-72" d="M87.65,258.29c-.89-.35-1.94.55-2.4,1.32-.23.38-.66,1.33-.29,1.71.61.64,3.47-.3,3.58-1.67.05-.56-.36-1.17-.88-1.37Z"/>
            </g>
            <g>
              <g>
                <path class="cls-95" d="M108.43,238.87c.23,7.93,1.37,15.6,3.25,23.07.81,3.25-3.36,3.51-4.39.33-2.83-8.75-3.62-16.26-3.26-23.06.03-.7.23-1.27.53-1.7,1.16-1.65,3.78-1.26,3.86,1.37Z"/>
                <g class="cls-24">
                  <path class="cls-94" d="M108.43,238.87c.23,7.93,1.37,15.6,3.25,23.07.19,1.43-.52,2.3-1.43,2.56.24-.42.43-.98.24-1.63-2.06-7.34-3.33-14.96-3.25-23.07.02-1.69-1.51-2.43-2.68-2.29,1.16-1.65,3.78-1.26,3.86,1.37Z"/>
                </g>
                <path class="cls-72" d="M105.59,244.19c-.23.01-.05,4.72,1.13,9.7.07.29.78,3.27.94,3.25.34-.05-1.68-12.97-2.07-12.95Z"/>
              </g>
              <g>
                <path class="cls-80" d="M113.52,265.78c3.66,7.04,8.04,13.44,12.98,19.34,2.15,2.57-1.49,4.62-3.8,2.21-6.36-6.64-10.35-13.05-12.99-19.34-.28-.65-.34-1.24-.26-1.76.32-1.99,2.86-2.78,4.07-.46Z"/>
                <g class="cls-24">
                  <path class="cls-68" d="M113.52,265.78c3.66,7.04,8.04,13.44,12.98,19.34.8,1.2.54,2.3-.17,2.92.03-.48-.04-1.07-.49-1.57-5.05-5.7-9.52-12.01-12.99-19.35-.72-1.53-2.42-1.53-3.4-.89.32-1.99,2.86-2.78,4.07-.46Z"/>
                </g>
              </g>
              <g>
                <path class="cls-85" d="M114.54,263.03c.75,2.43-.61,5.01-3.04,5.76s-5.01-.61-5.76-3.04c-.75-2.43.61-5.01,3.04-5.76,2.43-.75,5.01.61,5.76,3.04Z"/>
                <path class="cls-12" d="M114.17,263.2c.68,2.2-.55,4.54-2.76,5.22-1.55.48-3.17,0-4.23-1.08.89.41,1.92.49,2.92.18,2.21-.68,3.44-3.02,2.76-5.22-.2-.65-.55-1.23-1-1.68,1.07.46,1.94,1.37,2.31,2.58Z"/>
              </g>
              <path class="cls-72" d="M108.2,261.21c-.95-.07-1.69,1.1-1.9,1.97-.1.43-.24,1.47.23,1.73.77.43,3.22-1.31,2.93-2.65-.12-.54-.69-1.01-1.25-1.05Z"/>
            </g>
            <g>
              <g>
                <path class="cls-104" d="M129.91,205.7v.35c0,.89-.05,1.68-.2,2.24-.02.08-.06.16-.08.23-1.27,3.71-6.19,18.45-6.51,24.72-.09,1.76-.08,3.09-.02,4.11.01.29.03.56.06.8.01.08.01.16.02.24.04.46.09.81.15,1.07-5.5,1.06-11.3,1.37-17.33,1.07-8.49-.41-17.46-2.01-26.76-4.48-.13-.51-.27-1.04-.39-1.59-.76-3.26-1.38-7.22-1.81-11.5-.56-5.54-.79-11.61-.56-17.33l.15-2.87c.06-.2.11-.41.18-.6.06-.19.11-.38.18-.57.66-1.97,1.47-3.63,2.45-5,.14-.18.26-.36.41-.53,0-.01.01-.02.02-.03.11-.15.23-.28.35-.41.05-.04.08-.09.12-.12.19-.24.41-.44.63-.64,1.5-1.43,3.31-2.31,5.4-2.61.09-.02.18-.03.27-.04l.33.03h.02s.56.07.56.07l1.65.18.48.06,6.9.78,12.13,1.35,6.12.68h.01l4.95.55h.04l1.98.23h.03s.03.01.03.01c.11.01.22.03.35.06,2.25.35,4.14,1.62,5.51,3.42h0c.18.24.34.47.48.72.1.16.19.32.28.47.04.07.08.15.11.21.17.31.33.64.45.98.11.25.2.5.28.74.11.35.21.7.28,1.06.04.18.08.36.11.54.07.35.1.72.13,1.09.01.09.03.18.03.28Z"/>
                <path class="cls-61" d="M123.32,239.44c-5.5,1.06-11.3,1.37-17.33,1.07-8.49-.41-17.46-2.01-26.76-4.48-.13-.51-.27-1.04-.39-1.59l15.02,1.92,12.06,1.54,17.17-.57c.01.29.03.56.06.8.01.08.01.16.02.24.04.46.09.81.15,1.07Z"/>
                <path class="cls-18" d="M129.91,205.7v.35c0,.89-.05,1.68-.2,2.24-.02.08-.06.16-.08.23-1.27,3.71-6.19,18.45-6.51,24.72-.09,1.76-.08,3.09-.02,4.11.01.29.03.56.06.8,0,.08.01.16.02.24.04.46.09.81.15,1.07-5.5,1.06-11.3,1.37-17.33,1.07l-.07-2.6v-4.43c.06-7.86,1.14-16.99,3.59-26.78,1.38-2.8,2.93-5.06,4.64-6.76.01-.01.03-.02.04-.05,1.88-1.86,3.96-3.04,6.26-3.49.59-.12,1.17-.2,1.78-.23,2.25.35,4.14,1.62,5.51,3.42h0c.18.24.34.47.48.72.1.16.19.32.28.47.04.07.08.15.11.21.17.31.33.64.45.98.11.25.2.5.28.74.11.35.21.7.28,1.06.04.18.08.36.11.54.07.35.1.72.13,1.09.01.09.03.18.03.28Z"/>
                <path class="cls-9" d="M129.91,206v.05c0,.89-.05,1.68-.2,2.24-.02.08-.06.16-.08.23-1.27,3.71-6.19,18.45-6.51,24.72-.09,1.76-.08,3.09-.02,4.11l-17.17.57v-4.43c.56.21,1.97.53,2.58.61,8.22,1.13,16.62-10.63,18.74-26.26.39-2.84.55-5.59.5-8.22.18.23.34.46.48.71.15.23.28.45.39.69.17.31.33.64.45.98.11.25.2.5.28.74.11.35.21.7.28,1.06.17.71.26,1.45.28,2.22Z"/>
                <path class="cls-13" d="M121.88,196.11c-4.62.19-8.88,2.98-12.5,9.96-.09.18-.19.37-.28.56l-32.49-3.88c1.62-5.97,4.78-9.75,10.02-10.55l3.05.34,6.89.77,12.13,1.35,13.18,1.46Z"/>
                <path class="cls-44" d="M107.2,206.41c-1.61-.18-3.16-.27-4.65-.29-.84-.01-1.68,0-2.48.03-2.97.11-5.67.56-8.1,1.32-.11.03-.24.07-.35.12-.83.26-1.64.57-2.41.93-5.91,2.64-9.93,7.49-12.19,14.42-.56-5.54-.79-11.61-.56-17.33l.15-2.87,7.45.89,1,.12,7.14.86,8.81,1.05,1.88.23,4.3.52Z"/>
                <path class="cls-5" d="M121.88,196.11c-4.62.19-8.88,2.98-12.5,9.96-10.77-2.97-18.54-8.22-19.7-13.54l6.89.77,12.13,1.35,13.18,1.46Z"/>
                <path class="cls-51" d="M80.06,196.48c-1.05,1.03-2.13,3.09-3,5.79l25.26,3.1c-13.9-2.44-24.4-3.44-22.26-8.89Z"/>
                <path class="cls-46" d="M105.92,237.91c-.52-10.67.43-21.11,3.17-31.28,4.13-8.03,8.43-10.34,12.79-10.52-5.12.77-9.32,4.07-12.37,10.58-2.64,10.18-3.79,20.6-3.59,31.22Z"/>
              </g>
              <g>
                <path class="cls-96" d="M87.84,190.71l-.24,1.51c-1.73,1.59-3.24,3.45-3.87,5.83-.73,2.79-.02,5.93,1.71,7.95.81.94,1.82,1.63,2.89,2.14,3.13,1.47,6.77,1.31,10.08.09,3.31-1.24,6.32-3.46,9.05-5.99,1.96-1.81,3.83-3.82,6.12-4.97,1.98-1.02,4.11-1.31,6.26-1.39l.2-1.48-32.2-3.69Z"/>
                <path class="cls-119" d="M120.04,194.41c-.59.03-1.2.06-1.78.14-1.55.16-3.05.52-4.47,1.25-2.29,1.16-4.16,3.16-6.12,4.97-.67.63-1.36,1.23-2.09,1.81-2.15,1.77-4.47,3.25-6.97,4.18-2.17.79-4.46,1.14-6.66.87-1.18-.14-2.33-.45-3.42-.96-1.07-.51-2.08-1.2-2.89-2.14-1.73-2.02-2.44-5.17-1.71-7.95.49-1.83,1.49-3.35,2.71-4.67.37-.43.77-.81,1.19-1.2,8.65-.99,22.31.29,32.2,3.69Z"/>
                <path class="cls-3" d="M118.25,194.55c-1.55.16-3.05.52-4.47,1.25-2.29,1.16-4.16,3.16-6.12,4.97-.67.63-1.36,1.23-2.09,1.81-.12-.04-.25-.09-.38-.14-12.04-5.23-14.76-11.94-14.76-11.94,5.41-.24,10.67,0,15.76.79,4.86,1.05,9.44,2.1,12.06,3.26Z"/>
                <path class="cls-53" d="M92.05,206.99c-.03.22-.06.43-.11.65-1.18-.14-2.33-.45-3.42-.96-1.07-.51-2.08-1.2-2.89-2.14-1.73-2.02-2.44-5.17-1.71-7.95.49-1.83,1.49-3.35,2.71-4.67,4.01,3.89,6.18,9.37,5.41,15.08Z"/>
              </g>
            </g>
            <g>
              <g>
                <polygon class="cls-82" points="26.08 208.72 33.15 197.71 26.12 190.45 16.44 205.77 26.08 208.72"/>
                <path class="cls-6" d="M27.24,206.91c.8-1.65,1.15-3.48.93-5.35-.35-2.97-2.06-5.49-4.55-7.16l2.49-3.95,7.03,7.26-5.91,9.2Z"/>
                <polygon class="cls-83" points="16.44 205.77 16.59 201.85 25.89 186.9 26.31 186.22 32.38 193.37 32.43 193.65 33.15 197.71 26.12 190.45 16.44 205.77"/>
                <polygon class="cls-110" points="26.12 190.45 26.31 186.21 16.59 201.85 16.44 205.77 26.12 190.45"/>
              </g>
              <path class="cls-74" d="M26.65,182.96c2.21,2.04,2.29,5.06,1.72,7.82-.44,2.13,2.9,2.63,3.34.51.83-4.04.15-8.1-2.97-10.98-1.6-1.48-3.68,1.18-2.09,2.65h0Z"/>
              <g class="cls-10">
                <path class="cls-66" d="M31.71,191.29c-.43,2.12-3.77,1.62-3.33-.51.03-.13.05-.27.08-.39,1,.44,2.5-.15,2.49-1.58-.03-3.42-1.08-6.64-3.51-8.88.42-.11.88-.01,1.31.39,3.13,2.88,3.8,6.94,2.97,10.98Z"/>
              </g>
              <path class="cls-47" d="M27.19,180.58c-.42.04-.83.6-.87,1.05-.03.32.05.65.22.88.62.86.97.88,1.48,1.62.66.96.68,2.58.83,2.57.14,0,.69-1.42.41-2.85-.3-1.55-1.25-3.36-2.07-3.28Z"/>
              <g>
                <path class="cls-54" d="M20.37,192.28c-3.2-3.72-7.51-6.45-12.58-5.52-.99.18-1.71-.21-2.14-.82-.86-1.26-.47-3.49,1.53-3.86,5.35-.98,10.21,1.1,14.11,4.48,1,.86,1.92,1.8,2.79,2.81,1.99,2.31-1.74,5.22-3.71,2.92Z"/>
                <path class="cls-17" d="M20.37,192.28c-3.2-3.72-7.51-6.45-12.58-5.52-.99.18-1.71-.21-2.14-.82,2.4-.15,7.53-1.72,11.83,1.33,4.13,2.93,4.66.4,3.81-.71,1,.86,1.92,1.8,2.79,2.81,1.99,2.31-1.74,5.22-3.71,2.92Z"/>
                <path class="cls-48" d="M11.96,182.57s-3.39-.86-5.44.38c-.42.25-.58.54-.64.68-.26.57-.15,1.38.22,1.7.74.65,2.25-.77,4.4-1.24,3.74-.81,6.89,1.82,7.05,1.5.14-.27-2.32-2.18-5.6-3.02Z"/>
              </g>
              <g>
                <path class="cls-70" d="M16.4,200.11c-3.85-3.06-8.6-4.91-13.41-3.03-1.15.45-2.07-.03-2.58-.82-.74-1.16-.58-3.02,1.11-3.68,5.33-2.08,10.79-.74,15.41,2.15.88.55,1.74,1.15,2.56,1.81,2.39,1.89-.72,5.45-3.09,3.57Z"/>
                <path class="cls-11" d="M16.4,200.11c-3.85-3.06-8.6-4.91-13.41-3.03-1.15.45-2.07-.03-2.58-.82,1.82-.98,4.67-1.83,8.41-.86,6.89,1.78,8.87,1.41,8.11-.66.88.55,1.74,1.15,2.56,1.81,2.39,1.89-.72,5.45-3.09,3.57Z"/>
                <path class="cls-45" d="M8.2,191.91s-4.59-.41-6.64.83c-.42.25-.58.54-.64.68-.26.57-.15,1.38.22,1.71.74.65,2.25-.77,4.4-1.24,3.74-.81,7.38.44,7.54.13.14-.27-1.49-1.61-4.89-2.1Z"/>
              </g>
            </g>
            <g>
              <g>
                <polygon class="cls-117" points="142.4 249.44 132.38 257.86 136.94 266.87 150.73 255.11 142.4 249.44"/>
                <path class="cls-20" d="M140.75,250.82c-1.25,1.33-2.13,2.98-2.47,4.83-.55,2.94.34,5.86,2.22,8.19l-3.55,3.03-4.57-9.02,8.37-7.04Z"/>
                <polygon class="cls-86" points="150.73 255.11 149.43 258.81 136.11 270.33 135.5 270.86 131.83 262.23 131.87 261.95 132.38 257.86 136.94 266.88 150.73 255.11"/>
                <polygon class="cls-56" points="136.94 266.87 135.5 270.86 149.43 258.81 150.73 255.11 136.94 266.87"/>
              </g>
              <path class="cls-99" d="M134.21,273.87c-1.51-2.6-.68-5.51.67-7.98,1.05-1.91-1.99-3.38-3.04-1.48-1.99,3.61-2.55,7.69-.42,11.37,1.09,1.88,3.87-.04,2.78-1.91h0Z"/>
              <g class="cls-10">
                <path class="cls-79" d="M131.85,264.41c1.04-1.9,4.09-.43,3.03,1.48-.07.11-.12.24-.19.35-.83-.71-2.43-.6-2.85.78-.99,3.27-.94,6.66.72,9.52-.43-.02-.85-.25-1.14-.76-2.13-3.68-1.57-7.75.42-11.37Z"/>
              </g>
              <path class="cls-50" d="M132.99,275.99c.42.09.97-.32,1.14-.75.12-.29.14-.63.05-.91-.34-1.01-.66-1.13-.93-1.98-.35-1.11.12-2.67-.03-2.7-.14-.03-1.08,1.15-1.24,2.6-.17,1.57.2,3.58,1,3.75Z"/>
              <g>
                <path class="cls-114" d="M142.98,266.84c1.95,4.51,5.26,8.38,10.38,9,1,.12,1.57.7,1.8,1.42.45,1.46-.59,3.47-2.6,3.23-5.4-.65-9.43-4.08-12.15-8.46-.7-1.11-1.3-2.29-1.83-3.51-1.22-2.8,3.21-4.47,4.41-1.69Z"/>
                <path class="cls-26" d="M142.98,266.84c1.95,4.51,5.26,8.38,10.38,9,1,.12,1.57.7,1.8,1.42-2.33-.57-7.7-.59-10.9-4.78-3.07-4.02-4.34-1.76-3.85-.45-.7-1.11-1.3-2.29-1.83-3.51-1.22-2.8,3.21-4.47,4.41-1.69Z"/>
                <path class="cls-39" d="M148.13,278.6s2.98,1.83,5.31,1.25c.47-.12.71-.35.81-.46.42-.46.55-1.27.29-1.69-.51-.84-2.37.07-4.57-.12-3.81-.34-6.05-3.78-6.29-3.53-.21.22,1.57,2.77,4.45,4.55Z"/>
              </g>
              <g>
                <path class="cls-107" d="M149.08,260.53c2.77,4.06,6.75,7.24,11.91,6.87,1.23-.09,1.96.64,2.22,1.55.36,1.33-.34,3.06-2.15,3.18-5.71.4-10.52-2.5-14.08-6.63-.68-.79-1.32-1.62-1.91-2.48-1.72-2.52,2.3-5,4.01-2.49Z"/>
                <path class="cls-4" d="M149.08,260.53c2.77,4.06,6.75,7.24,11.91,6.87,1.23-.09,1.96.64,2.22,1.55-2.03.4-5,.36-8.28-1.67-6.05-3.75-8.06-3.98-7.94-1.78-.68-.79-1.32-1.62-1.91-2.48-1.72-2.52,2.3-5,4.01-2.49Z"/>
                <path class="cls-41" d="M154.49,270.8s4.26,1.75,6.59,1.18c.47-.12.71-.35.81-.46.42-.46.55-1.27.29-1.69-.51-.84-2.37.07-4.57-.12-3.81-.34-6.92-2.61-7.17-2.36-.21.22.94,1.98,4.05,3.45Z"/>
              </g>
            </g>
            <g>
              <g>
                <path class="cls-112" d="M86.74,80.43c.17-4.63.69-9.23,1.56-13.78.43-2.25.92-4.4,1.52-6.6.63-2.32,1.18-4.11,1.95-6.3.18-.52.37-1.03.56-1.55.1-.27.2-.55.31-.82.16-.42.06-.16.02-.07.07-.17.13-.34.2-.51.43-1.09.88-2.17,1.34-3.24.12-.27.23-.54.35-.8.04-.09.33-.71.16-.36.26-.56.52-1.13.79-1.69.51-1.05,1.03-2.1,1.58-3.13.17-.32.36-.67.63-1.17.28-.51.57-1.02.86-1.53.58-1.01,1.18-2.02,1.8-3.01,1.17-1.87,2.48-3.79,3.81-5.6,3.08-4.2,6.53-8.13,10.28-11.75.69-.67,1.08-1.82,1.33-2.72.08-.31.36-1.62-.3-.99-7.13,6.89-13.15,14.91-17.9,23.6-4.93,9.03-8.59,18.74-10.74,28.81-1.16,5.44-1.85,10.98-2.06,16.53-.04.93.79-.27.91-.48.48-.82.98-1.89,1.01-2.85h0Z"/>
                <path class="cls-88" d="M121.15,15.53c-2.83,3.52-6.72,5.1-8.68,3.52-1.96-1.58-1.26-5.71,1.57-9.24,1.62-2.02,6.92-6.22,11.15-9.43,1.52-1.16,3.58.5,2.78,2.23-2.23,4.82-5.19,10.89-6.82,12.91Z"/>
                <path class="cls-7" d="M127.97,2.62c-2.24,4.82-5.19,10.89-6.82,12.91-2.83,3.52-6.73,5.09-8.68,3.52-1.02-.82-1.32-2.33-.98-4.08h.01c1.97,1.59,5.85.01,8.68-3.51,1.46-1.81,4.02-6.93,6.14-11.45,1.21.01,2.26,1.29,1.64,2.62Z"/>
                <path class="cls-72" d="M116.85,9.01c-.91-.45-2.63,1.03-3.52,2.45-.41.66-1.26,2.3-.81,2.69.76.66,5.18-2.02,4.9-4.19,0-.06-.1-.73-.57-.96Z"/>
              </g>
              <polygon class="cls-100" points="160.41 171.69 98.51 171.19 38.03 189.76 34.79 177.39 19.16 117.56 68.52 105.41 86.04 101.1 154.03 99.11 160.41 171.69"/>
              <path class="cls-58" d="M89.83,75.62c-36.27,3.21-73.79,19.1-70.67,41.93l66.88-16.46,67.99-1.99c-2.69-19.65-32.98-26.27-64.2-23.49Z"/>
              <g class="cls-84">
                <path class="cls-111" d="M110.7,152.54c.05.09.1.19.15.27.2.35.41.69.61,1.03-.26-.42-.51-.85-.76-1.3ZM153.01,129.87c-1.18-7.93-4.52-14.68-9.09-19.35-.5-.54-1.07-1.07-1.63-1.56-2.34-2.03-4.93-3.54-7.68-4.43-.32-.11-.65-.2-.99-.28-1.78-.48-3.61-.69-5.47-.59-.15.01-.29,0-.44.02h-.01s-5.23.35-5.23.35c-.85.06-1.71.18-2.57.37-.47.1-.93.22-1.38.35-.15.05-.28.1-.42.13-.33.11-.65.22-.97.34-.15.05-.29.11-.44.17-.34.14-.68.28-1.02.45-.09.05-.19.09-.28.14-.43.21-.85.44-1.25.67-.1.06-.21.13-.31.19-.31.19-.62.39-.91.6-.13.09-.27.19-.39.27-.29.2-.56.42-.85.64-.1.09-.22.17-.33.26-.38.31-.75.64-1.1.97-.04.03-.07.07-.1.1-.32.31-.64.63-.95.96-.04.04-.08.08-.12.13-.05.06-.1.11-.15.17-.25.28-.5.57-.73.84-.12.14-.24.29-.35.43-.04.05-.09.1-.13.15-.37.47-.73.96-1.08,1.48-.08.11-.16.23-.23.34-.35.52-.68,1.05-.99,1.59-.02.04-.05.08-.07.12-.29.53-.58,1.05-.85,1.6-.03.07-.08.13-.11.22-.02.05-.05.11-.07.16h0c-.25.55-.5,1.08-.74,1.64-.03.08-.06.16-.09.24-.2.49-.4,1-.58,1.52-.05.15-.11.29-.16.45-.19.58-.39,1.18-.56,1.79,0,.05-.02.11-.03.14-.13.45-.25.9-.35,1.36-.02.12-.06.24-.08.36-.01.09-.04.17-.06.25-.02.11-.04.2-.06.3-.07.34-.13.68-.19,1.02-.04.2-.08.39-.11.59-.07.41-.12.8-.18,1.2-.02.14-.04.29-.05.44-.08.55-.13,1.1-.18,1.66,0,.13-.01.25-.02.38-.03.43-.07.87-.08,1.31,0,.19-.01.4-.02.61,0,.36-.01.74,0,1.11v.04c0,.19,0,.4,0,.61,0,.37.02.74.04,1.11,0,.22.02.43.04.64.02.4.06.8.09,1.2.02.18.04.37.05.55.06.59.14,1.17.23,1.75,2.36,15.88,13.38,27.02,25.28,26.21l5.04-.35h.2c.86-.07,1.71-.18,2.57-.37,4.01-.85,7.58-3,10.53-6.06.19-.21.4-.42.58-.64.1-.1.19-.21.28-.32.17-.19.34-.39.52-.61,2.21-2.71,3.99-6,5.23-9.64.23-.68.45-1.38.64-2.08,1.37-5.04,1.76-10.68.9-16.42ZM107.32,123.68c.02-.12.06-.25.09-.37.02-.05.02-.11.04-.16.03-.12.08-.24.11-.36-.09.29-.17.59-.25.88ZM122.38,104.87c.14-.05.26-.08.39-.13-.21.08-.44.15-.66.24.09-.03.19-.07.27-.11ZM120.64,105.63s.09-.05.14-.06c-.13.07-.27.14-.39.21.08-.04.18-.1.26-.15ZM119.09,106.5c.1-.06.2-.12.3-.18.09-.06.18-.1.27-.15-.26.15-.53.31-.78.47.07-.04.14-.1.22-.15ZM110.96,114.97c-.07.1-.14.2-.19.31.06-.11.12-.22.18-.31h.01ZM108.74,119.4c.04-.08.06-.16.1-.24.05-.11.09-.21.15-.32-.12.27-.23.53-.34.8.04-.08.06-.16.09-.24ZM108.01,121.37c.05-.15.11-.31.16-.45.05-.17.13-.33.19-.51-.18.49-.36,1-.52,1.51.06-.19.11-.37.17-.56ZM106.04,132.77c0-.21,0-.4,0-.61.02-.32.04-.64.06-.96-.04.52-.05,1.04-.07,1.57ZM106.03,134.09c0,.72.03,1.45.08,2.19-.02-.21-.02-.43-.04-.64-.02-.36-.02-.74-.04-1.1,0-.16,0-.3,0-.45Z"/>
                <g class="cls-33">
                  <path class="cls-57" d="M130.13,144.43c-7.78-7.03-15.22-14.54-22.29-22.51-1.17-1.34-2.35-2.67-3.5-4.03h0c.03-.07.06-.12.07-.17.04-.08.09-.15.11-.22.27-.55.56-1.08.85-1.6.02-.04.05-.08.07-.12.32-.54.64-1.07.99-1.59.08-.11.16-.23.23-.34.35-.52.7-1.01,1.08-1.48.04-.05.09-.1.13-.15.11-.14.23-.29.35-.43.91,1.07,1.82,2.13,2.74,3.17h.01c7.37,8.42,15.15,16.31,23.3,23.68,3.37,3.04-.79,8.8-4.14,5.79Z"/>
                </g>
                <g class="cls-33">
                  <path class="cls-65" d="M124.03,157.92c-5.96-5.55-11.77-11.33-17.41-17.32-1.97-2.08-3.9-4.17-5.82-6.31v-.04c0-.37,0-.75,0-1.11,0-.21.01-.41.02-.61.01-.44.04-.88.08-1.31,0-.13.01-.25.02-.38.04-.56.1-1.11.18-1.66,0-.16.03-.3.05-.44.06-.4.11-.8.18-1.2.03-.2.07-.39.11-.59.06-.34.12-.68.19-1.02.02-.11.04-.2.06-.3.02-.08.04-.16.06-.25.02-.12.06-.24.08-.36,1.46,1.64,2.92,3.28,4.38,4.89,7.07,7.77,14.39,15.18,21.97,22.23,3.33,3.1-.83,8.88-4.15,5.79Z"/>
                </g>
                <path class="cls-103" d="M152.11,146.3c-.2.7-.41,1.4-.64,2.08-1.24,3.65-3.02,6.93-5.24,9.64-.17.22-.34.41-.5.61-.09.11-.18.22-.28.32-.18.22-.39.43-.58.64-2.95,3.06-6.53,5.21-10.53,6.06-3.67.79-7.3.41-10.68-.95-.18-.06-.37-.14-.54-.23-.91-.39-1.82-.85-2.68-1.38h0c-.17-.09-.33-.2-.48-.31-3.56-2.29-6.7-5.7-9.08-9.96-.22-.37-.41-.75-.61-1.13-.36-.7-.71-1.42-1.03-2.17-1.28-2.94-2.22-6.22-2.74-9.7-1.21-8.1.06-15.97,3.11-22.3.3-.62.61-1.22.94-1.8.34-.61.69-1.19,1.08-1.75.17-.3.36-.56.55-.83.07-.11.15-.22.24-.31.16-.26.35-.49.54-.74,3.23-4.1,7.42-7,12.23-8.02.69-.14,1.38-.26,2.08-.31.31-.04.62-.06.93-.07,1.85-.1,3.69.12,5.47.59.25.06.49.12.74.2.09.02.16.04.25.07,2.75.88,5.33,2.4,7.68,4.43.56.49,1.13,1.02,1.63,1.56,4.56,4.67,7.91,11.42,9.09,19.35.86,5.74.47,11.38-.9,16.42Z"/>
                <path class="cls-42" d="M136.57,115.45c1.34,18.16-8.24,33.65-21.41,34.62-2.02.15-4.02-.05-5.95-.57-1.28-2.94-2.22-6.22-2.74-9.7-1.21-8.1.06-15.97,3.11-22.3.3-.62.61-1.22.94-1.8.34-.61.69-1.19,1.08-1.75.17-.3.36-.56.55-.83.07-.11.15-.22.24-.31.16-.26.35-.49.54-.74,3.23-4.1,7.42-7,12.23-8.02.69-.14,1.38-.26,2.08-.31.31-.04.62-.06.93-.07,1.85-.1,3.69.12,5.47.59.25.06.49.12.74.2,1.15,3.39,1.92,7.09,2.21,10.98Z"/>
                <path class="cls-97" d="M125.77,107.49c11.38-2.42,22.41,7.81,24.65,22.85,2.24,15.06-5.16,29.22-16.54,31.64-11.37,2.42-22.4-7.81-24.64-22.87-2.24-15.05,5.16-29.21,16.53-31.63Z"/>
                <path class="cls-27" d="M143.58,134.91c.51,9.08-2.86,17.43-8.48,21.93-1.94,1.57-4.14,2.66-6.54,3.17-.72.16-1.45.25-2.15.29-1.63.09-3.24-.09-4.78-.54-5.38-3.25-9.74-9.38-11.69-17.12-.3-1.12-.54-2.3-.7-3.5-.08-.55-.17-1.09-.22-1.63-.19-1.74-.23-3.47-.17-5.16.27-6.99,2.58-13.39,6.3-17.97,1.84-1.43,3.92-2.43,6.17-2.9,9.49-2.04,18.74,5.85,21.49,17.9.19.77.36,1.62.48,2.45,0,.08.02.15.02.23.14.96.23,1.91.27,2.85Z"/>
                <path class="cls-115" d="M136.8,129.74c.07.9.08,1.79.06,2.66-.91-.47-1.87-.69-2.87-.62-4,.29-6.91,5.19-6.49,10.92.15,2.06.72,3.95,1.57,5.51-1.23.7-2.56,1.12-3.98,1.22-7.22.53-13.71-7.42-14.47-17.77-.76-10.33,4.49-19.14,11.71-19.67,7.22-.53,13.71,7.42,14.47,17.75Z"/>
                <path class="cls-72" d="M138.83,137.36c-.41-.63-2.71-3.97-5.55-3.39-2.94.6-3.97,4.87-4.14,5.67-.07.31-.9,4.44,1.42,7.94,1.94,2.92,5.62,4.73,7.96,3.21,3.11-2.02,2.96-9.37.31-13.43Z"/>
                <path class="cls-72" d="M131.43,114.39c-2.23,0-3.61,3.81-4.04,5.86-.99,4.69.82,10.71,2.98,11.09,2.51.44,6.56-6.56,5.13-12.05-.55-2.13-2.16-4.9-4.06-4.89Z"/>
                <path class="cls-38" d="M143.58,134.91c.51,9.08-2.86,17.43-8.48,21.93-1.94,1.57-4.14,2.66-6.54,3.17-.72.16-1.45.25-2.15.29-.61-1.96-1.01-4.09-1.17-6.31-.81-10.98,4.55-20.32,11.98-20.87,2.24-.16,4.41.49,6.36,1.79Z"/>
                <g class="cls-24">
                  <path class="cls-59" d="M136.96,117.48c-3.02-1.5-6.34-2.02-9.68-1.29-2.25.46-4.33,1.47-6.17,2.9-3.72,4.58-6.03,10.98-6.3,17.97-.06,1.69-.02,3.41.18,5.16.05.54.13,1.08.22,1.63.16,1.2.4,2.39.7,3.5,1.25,4.98,3.49,9.27,6.36,12.58-.21-.05-.42-.1-.63-.16-5.38-3.25-9.74-9.38-11.69-17.12-.3-1.12-.54-2.3-.7-3.5-.08-.55-.17-1.09-.22-1.63-.19-1.74-.23-3.47-.17-5.16.27-6.99,2.58-13.39,6.3-17.97,1.84-1.43,3.92-2.43,6.17-2.9,5.77-1.24,11.45,1.19,15.64,6Z"/>
                </g>
              </g>
              <polygon class="cls-16" points="86.04 101.1 98.51 171.19 160.41 171.69 154.02 99.11 86.04 101.1"/>
              <g class="cls-43">
                <path class="cls-108" d="M22.53,113.22c.16.36.41.69.75.82.32.13.67.06.99,0,16.14-3.36,32.69-8.74,48.87-12.29-10.99,1.02-25.37,1.63-32.44-1.1-7.02-2.7,5.15-10.63,16.97-16.98-14.9,4.92-29.27,13.82-33.82,21.8-1.34,2.35-2.2,5.92-1.32,7.75Z"/>
              </g>
              <path class="cls-2" d="M154.02,99.11l-67.99,1.99c-1.42-10.63-1.26-19.7,2.5-25.24l1.29-.24c31.22-2.78,61.51,3.84,64.2,23.49Z"/>
              <path class="cls-36" d="M71.73,121.19c2.05,27.84-14.21,52.03-36.94,56.2l-15.63-59.83,49.36-12.15c1.69,4.93,2.8,10.23,3.21,15.77Z"/>
              <g class="cls-84">
                <path class="cls-101" d="M32.48,147.44c.52,5.79,2.25,11.14,4.83,15.64.36.62.74,1.24,1.14,1.82,2.11,3.19,4.67,5.87,7.53,7.88.22.17.44.31.66.45.11.08.23.15.35.22.23.17.48.31.73.46,3.68,2.15,7.77,3.25,11.97,2.96.92-.06,1.81-.19,2.69-.37-.01,0-.02,0-.04.01l.12-.02s.06-.01.08-.02l5.12-1.06c12.09-2.5,20.44-16.31,19-32.32-.05-.59-.12-1.18-.2-1.76-.02-.19-.06-.37-.08-.56-.06-.39-.12-.79-.19-1.18-.04-.21-.08-.42-.12-.64-.07-.36-.15-.72-.23-1.08-.05-.21-.1-.43-.15-.64-.09-.36-.18-.72-.28-1.07-.05-.19-.1-.39-.16-.58-.12-.42-.25-.83-.39-1.25-.04-.12-.07-.24-.11-.36-.18-.53-.37-1.05-.57-1.56-.05-.14-.11-.27-.16-.4-.15-.37-.3-.75-.46-1.11-.08-.18-.16-.36-.25-.54-.15-.32-.29-.63-.45-.94-.04-.09-.08-.18-.13-.27-.04-.08-.08-.15-.12-.23-.27-.52-.54-1.04-.83-1.54-.03-.04-.05-.09-.08-.14-.31-.54-.65-1.06-.98-1.57-.09-.13-.18-.26-.27-.39-.3-.44-.61-.88-.93-1.3-.05-.07-.1-.14-.15-.21-.37-.48-.74-.94-1.13-1.38-.04-.05-.08-.1-.12-.14-.05-.06-.11-.12-.16-.18-.4-.45-.81-.89-1.23-1.31-.03-.03-.06-.07-.1-.1-.44-.44-.9-.86-1.37-1.26-.11-.09-.21-.18-.32-.27-.47-.39-.94-.77-1.43-1.13-.05-.04-.11-.07-.16-.11-.45-.32-.91-.63-1.38-.92-.07-.04-.13-.09-.19-.13-.05-.03-.1-.05-.15-.08-.39-.24-.79-.46-1.19-.67-.04-.02-.08-.04-.11-.06-.44-.23-.88-.44-1.33-.63-.13-.06-.26-.11-.4-.17-.33-.14-.66-.27-.99-.38-.15-.05-.3-.11-.46-.16-.35-.12-.71-.22-1.06-.32-.12-.03-.23-.07-.35-.1-.47-.12-.94-.23-1.41-.31-.11-.02-.21-.03-.32-.05-.37-.06-.75-.12-1.13-.16-.16-.02-.32-.03-.47-.04-.35-.03-.7-.05-1.04-.06-.15,0-.3-.01-.45-.01-.49,0-.98,0-1.47.04-.9.06-1.79.18-2.65.36l-5.32,1.1c.16-.03.32-.05.48-.08-.31.05-.61.11-.92.18-1.87.43-3.66,1.14-5.32,2.09-.31.17-.62.35-.92.54-2.53,1.61-4.76,3.79-6.61,6.4-.45.63-.89,1.29-1.26,1.96-3.44,5.77-5.17,13.21-4.46,21.22ZM52.91,114.9c-.26.04-.53.08-.79.13.26-.05.52-.09.79-.13ZM57.58,114.86s.01,0,.02,0c-.3-.03-.61-.05-.92-.07.14,0,.28.01.42.02.16.01.32.03.47.04ZM59.03,115.07c.1.02.2.05.3.07-.3-.06-.6-.11-.9-.16.09.01.19.02.28.04.11.02.21.03.32.05ZM60.79,115.48c.08.02.16.05.24.07-.3-.09-.59-.17-.89-.24.1.02.2.04.3.07.12.03.23.07.35.1ZM62.71,116.12c-.3-.11-.59-.23-.89-.33.01,0,.02,0,.03,0,.15.05.3.1.46.16.14.05.27.11.4.16ZM71.04,172.31c-.21.17-.41.34-.62.5.07-.05.14-.1.21-.16.14-.11.27-.22.41-.33ZM64.41,116.85c-.28-.14-.57-.27-.86-.4.05.02.09.04.14.06.24.11.48.23.72.34ZM68.83,173.9c-.11.07-.23.13-.34.2.11-.07.23-.13.34-.2ZM66.4,117.92c-.28-.17-.56-.32-.84-.48.26.14.52.29.78.44.02.01.04.03.07.04ZM69.96,120.53s.03.02.04.04c-.13-.12-.27-.23-.4-.34.01.01.03.02.05.04.11.09.21.18.32.27ZM71.42,121.89s.02.02.03.03c-.36-.36-.72-.69-1.09-1.02.33.29.65.58.97.89.03.03.06.07.1.1ZM72.65,123.2s.03.04.05.05c-.07-.08-.15-.16-.23-.24.06.07.12.12.18.19ZM74.21,125.1c.05.07.1.14.14.2-.37-.49-.75-.97-1.14-1.44.28.34.57.68.84,1.03.05.07.1.14.15.21ZM75.79,127.4c-.31-.49-.62-.96-.95-1.43.1.15.21.29.31.44.09.13.18.26.26.39.13.19.25.4.37.6ZM76.47,128.51c.29.5.56,1.01.83,1.53-.35-.68-.72-1.34-1.11-1.98.06.11.14.21.2.32.03.04.05.09.08.14ZM77.13,165.04c-.14.25-.28.49-.43.73.15-.24.29-.48.43-.73ZM78.25,162.89c-.12.25-.25.5-.37.75.13-.25.25-.49.37-.75ZM79.37,160.19c-.12.34-.25.68-.38,1.01.13-.33.26-.67.38-1.01ZM78.25,132.03c.07.15.13.31.19.46-.3-.71-.62-1.41-.96-2.09.02.05.05.1.07.15.15.31.3.63.45.94.08.18.17.36.25.54ZM80.08,157.99c.03-.1.06-.21.09-.31-.14.5-.29.99-.45,1.48.13-.39.25-.77.37-1.17ZM79.45,135.1c.02.06.04.13.06.19-.26-.77-.54-1.53-.84-2.28.02.04.04.09.05.13.05.13.11.26.16.4.2.51.39,1.03.57,1.56ZM80.9,154.46c-.12.65-.25,1.29-.4,1.92.15-.63.28-1.28.4-1.92ZM80.11,137.29c.05.19.1.39.15.58-.18-.7-.38-1.39-.59-2.07.1.3.19.6.28.91.06.19.11.39.16.58ZM81.3,151.6c-.06.6-.12,1.2-.21,1.79.09-.59.15-1.19.21-1.79ZM80.88,140.71c0,.05.02.1.02.15-.14-.78-.29-1.54-.47-2.3.03.14.07.29.1.43.08.36.15.72.23,1.08.04.21.08.42.12.64ZM81.15,142.44c.07.51.12,1.02.17,1.54-.08-.8-.18-1.59-.3-2.38.01.09.03.19.05.28.03.19.06.37.08.56ZM81.48,148.53c-.01.62-.02,1.23-.06,1.84.04-.6.05-1.22.06-1.84ZM81.39,144.97c.05.78.1,1.56.11,2.32,0-.77-.06-1.54-.11-2.32ZM75.34,167.78c.17-.23.33-.46.49-.7-.16.23-.32.47-.49.7ZM73.7,169.78c.2-.22.4-.45.6-.68-.2.23-.4.46-.6.68ZM72.58,170.95c-.13.13-.26.25-.4.37.13-.12.26-.25.4-.37ZM64.4,175.96c.11-.04.23-.07.34-.11-.11.04-.23.08-.34.11ZM66.64,175.09c.07-.03.14-.07.21-.1-.07.03-.14.07-.21.1ZM54.88,114.76c.25,0,.49-.02.74-.02.04,0,.07,0,.11,0-.28,0-.57,0-.85.01Z"/>
                <path class="cls-87" d="M81.35,144.2c.4,4.41.05,8.66-.92,12.53-.1.42-.22.84-.35,1.25-.51,1.82-1.17,3.55-1.95,5.17-1.26,2.64-2.87,4.98-4.74,6.97-.12.16-.26.3-.4.43h0c-.74.77-1.54,1.46-2.36,2.07-.16.15-.32.27-.48.38-2.05,1.5-4.31,2.61-6.74,3.24-1.2.33-2.44.54-3.71.62-4.21.28-8.29-.81-11.97-2.96-.24-.15-.5-.3-.73-.46-.12-.07-.24-.14-.35-.22-.22-.14-.43-.29-.66-.46-1.36-.96-2.66-2.07-3.87-3.32-1.33-1.36-2.57-2.89-3.67-4.55-.4-.59-.78-1.21-1.13-1.83-2.59-4.49-4.32-9.84-4.84-15.64-.71-8,1.02-15.45,4.46-21.21.37-.67.81-1.34,1.27-1.97,1.85-2.61,4.08-4.79,6.61-6.39.3-.19.61-.37.92-.53,1.66-.96,3.44-1.66,5.32-2.1.32-.07.63-.14.95-.19.71-.14,1.42-.22,2.15-.27,2.27-.15,4.52.09,6.67.71,2.63.72,5.15,1.99,7.46,3.68.25.19.48.37.72.57.12.07.21.15.31.25.26.2.51.4.76.64.51.43,1,.9,1.48,1.39.48.47.93.97,1.39,1.49,4.54,5.26,7.7,12.54,8.42,20.7Z"/>
                <path class="cls-52" d="M78.13,163.16c-1.26,2.64-2.87,4.98-4.74,6.97-.12.16-.26.3-.4.43h0c-.74.77-1.54,1.46-2.36,2.07-.16.15-.32.27-.48.38-2.05,1.5-4.31,2.61-6.74,3.24-1.53-2.21-2.58-5.18-2.82-8.47-.54-7.33,3.08-13.56,8.06-13.92,4.21-.31,8.07,3.65,9.48,9.3Z"/>
                <path class="cls-49" d="M63.73,129.93c1.53,20.86-7.87,38.54-21,39.51-.2.01-.41.03-.61.02-1.33-1.36-2.57-2.89-3.67-4.55-.4-.59-.78-1.21-1.13-1.83-2.59-4.49-4.32-9.84-4.84-15.64-.71-8,1.02-15.45,4.46-21.21.37-.67.81-1.34,1.27-1.97,1.85-2.61,4.08-4.79,6.61-6.39.3-.19.61-.37.92-.53,1.66-.96,3.44-1.66,5.32-2.1.32-.07.63-.14.95-.19.71-.14,1.42-.22,2.15-.27,2.27-.15,4.52.09,6.67.71,1.51,4.4,2.53,9.28,2.91,14.45Z"/>
                <path class="cls-71" d="M54.36,118.28c-11.95.79-20.53,13.73-19.17,28.9,1.36,15.18,12.14,26.83,24.09,26.04,11.94-.79,20.52-13.73,19.16-28.91-1.36-15.17-12.14-26.82-24.08-26.03Z"/>
                <path class="cls-60" d="M78.43,144.31c.12,1.22.17,2.43.13,3.6-.1,8.02-2.98,15.15-7.59,19.78-2.06,1.24-4.38,1.98-6.85,2.15-2.52.17-4.99-.28-7.29-1.26-.48-.21-.97-.43-1.44-.67-6.68-3.54-11.78-11.49-12.69-21.03-.02-.08-.02-.15-.03-.23-.07-.84-.11-1.7-.11-2.5-.14-12.42,7.21-22.59,17.19-23.23,2.36-.17,4.68.22,6.86,1.09,4.82,3.41,8.65,8.96,10.59,15.64.03.1.06.19.08.29.42,1.53.76,3.11.98,4.75.07.54.11,1.08.16,1.63Z"/>
                <path class="cls-102" d="M71.7,140.89c.07.91.08,1.81.06,2.69-.94-.47-1.95-.69-3-.62-4.18.31-7.23,5.26-6.8,11.06.15,2.08.74,4,1.63,5.57-1.29.71-2.68,1.14-4.16,1.24-7.54.55-14.29-7.47-15.06-17.93-.77-10.44,4.73-19.37,12.27-19.92,7.54-.55,14.29,7.47,15.05,17.91Z"/>
                <path class="cls-72" d="M73.81,148.59c-.43-.64-2.81-4.01-5.78-3.42-3.07.61-4.15,4.93-4.33,5.74-.07.31-.95,4.49,1.46,8.03,2.01,2.95,5.86,4.77,8.29,3.23,3.25-2.05,3.11-9.49.36-13.58Z"/>
                <path class="cls-72" d="M65.75,124.36c-2.18.01-3.55,3.62-3.97,5.57-.98,4.46.78,10.16,2.89,10.51,2.46.41,6.44-6.24,5.05-11.45-.54-2.02-2.1-4.64-3.97-4.63Z"/>
                <path class="cls-40" d="M78.43,144.31c.12,1.22.17,2.43.13,3.6-.1,8.02-2.98,15.15-7.59,19.78-2.06,1.24-4.38,1.98-6.85,2.15-2.52.17-4.99-.28-7.29-1.26-.48-.21-.97-.43-1.44-.67-.86-2.24-1.42-4.68-1.61-7.24-.9-12.19,6.86-22.69,17.33-23.46,2.13-.16,4.21.1,6.17.72.42,1.53.76,3.11.98,4.75.07.54.11,1.08.16,1.63Z"/>
              </g>
              <path class="cls-35" d="M86.04,101.1l-66.88,16.46,4.74,18.15c-2.01-17.27,30-25.96,62.13-34.61Z"/>
              <path class="cls-30" d="M38.03,189.76l60.49-18.57-5.53-29.26c.56,22.22-16.39,31.96-54.96,47.84Z"/>
              <polygon class="cls-81" points="38.03 189.76 100.05 189.2 160.41 171.69 98.51 171.19 38.03 189.76"/>
              <path class="cls-23" d="M99.7,185.6l-38.78.45,37.86-11.25,38.71.18-37.78,10.62Z"/>
              <path class="cls-25" d="M128.98,174.92l-29.28,8.24-30.28.35-8.51,2.53,38.78-.45,37.78-10.62-8.51-.05Z"/>
              <path class="cls-32" d="M88.54,75.86c-4.19,6.45-3.72,16.15-2.5,25.23,2.33,17.26,8.16,46.37,12.47,70.09,0,0-17.08-61.85-16.3-75.89.78-14.04,6.32-19.44,6.32-19.44Z"/>
              <path class="cls-22" d="M141.43,99.41l-55.39,1.68,12.47,70.09,5.83-.05c-21.73-69.11,18.55-71.11,37.09-71.72Z"/>
            </g>
            <path class="cls-34" d="M73.02,86.89c-7.88-3.88-19.3,4.06-42.14,19.94-2.11,1.47-3.58,2.53-3.34,3.37.95,3.39,27.44-6.45,47.63-8.22,1.31-.11,4.33-.35,5.35-2.29,1.63-3.11-2.15-10.17-7.49-12.8Z"/>
            <path class="cls-72" d="M55.35,86.65c-.44-1.48-11.6-1.23-18.58,5.54-1.01.98-3.06,2.97-2.63,3.66,1.23,1.95,21.85-7.06,21.2-9.19Z"/>
            <path class="cls-91" d="M105.23,193.33c.54-4.27-.61-8.78-3.07-12.3-1.54-2.2-4.32-3.25-6.79-1.83-2.18,1.25-3.37,4.58-1.83,6.79,1.59,2.28,2.09,4.42,1.74,7.18-.34,2.67,2.23,3.15,4.7,3.18,2.93.04,4.91-.35,5.24-3.03h0Z"/>
            <g>
              <g>
                <path class="cls-67" d="M123.41,207.39c.04,7.94,1,15.63,2.69,23.14.73,3.27-3.44,3.43-4.39.22-2.62-8.81-3.23-16.34-2.7-23.14.05-.7.26-1.26.57-1.68,1.2-1.62,3.81-1.17,3.83,1.46Z"/>
                <g class="cls-24">
                  <path class="cls-118" d="M123.41,207.39c.04,7.94,1,15.63,2.69,23.14.16,1.44-.57,2.29-1.49,2.52.25-.41.45-.97.28-1.62-1.88-7.38-2.98-15.03-2.7-23.15.06-1.69-1.45-2.46-2.62-2.35,1.2-1.62,3.81-1.17,3.83,1.46Z"/>
                </g>
                <path class="cls-72" d="M120.45,212.64c-.23,0-.17,4.72.89,9.72.06.3.7,3.29.86,3.27.34-.04-1.37-13-1.76-12.99Z"/>
              </g>
              <g>
                <path class="cls-69" d="M127.85,234.41c3.49,7.13,7.71,13.63,12.51,19.65,2.08,2.62-1.6,4.59-3.86,2.12-6.2-6.79-10.03-13.3-12.52-19.64-.26-.65-.31-1.25-.22-1.76.37-1.98,2.92-2.71,4.08-.36Z"/>
                <g class="cls-24">
                  <path class="cls-63" d="M127.85,234.41c3.49,7.13,7.71,13.63,12.51,19.65.77,1.22.48,2.31-.24,2.92.04-.48-.02-1.07-.45-1.58-4.91-5.82-9.23-12.23-12.52-19.65-.69-1.55-2.38-1.59-3.38-.97.37-1.98,2.92-2.71,4.08-.36Z"/>
                </g>
              </g>
              <g>
                <path class="cls-73" d="M128.94,231.69c.69,2.45-.73,4.99-3.18,5.68-2.45.69-4.99-.73-5.68-3.18-.69-2.45.73-4.99,3.18-5.68,2.45-.69,4.99.73,5.68,3.18Z"/>
                <path class="cls-14" d="M128.56,231.85c.63,2.21-.66,4.53-2.88,5.16-1.56.44-3.17-.07-4.2-1.19.88.43,1.91.54,2.92.25,2.22-.63,3.51-2.94,2.88-5.16-.19-.66-.52-1.24-.96-1.7,1.06.48,1.9,1.42,2.25,2.64Z"/>
              </g>
              <path class="cls-72" d="M122.65,229.72c-.95-.1-1.72,1.06-1.95,1.93-.11.43-.27,1.46.18,1.73.76.45,3.25-1.23,2.99-2.58-.11-.55-.67-1.02-1.22-1.08Z"/>
            </g>
            <path class="cls-21" d="M88.62,76.4c-3.08,5.77-3.37,15.51-2.04,24.09l43.9-1.38c-28.07.37-41-8.31-41.86-22.71Z"/>
            <path class="cls-19" d="M148.99,92.36c-2-4.93-6.84-7.7-12.23-9.79-12.98-5.04-34.24-8.12-35.21-4.36-1.46,5.69,43.98,24.84,48.06,18.79.79-1.17-.03-3.18-.62-4.64Z"/>
          </g>
        </g>
      </g>
    </g>
  </svg>