<svg id="Layer_2" data-name="Layer 2" xmlns="http://www.w3.org/2000/svg" xmlns:xlink="http://www.w3.org/1999/xlink" viewBox="0 0 179.88 249">
    <defs>
      <style>
        .cls-1 {
          fill: url(#_Áåçûìÿííûé_ãðàäèåíò_4);
        }

        .cls-1, .cls-2, .cls-3, .cls-4, .cls-5, .cls-6, .cls-7, .cls-8, .cls-9, .cls-10, .cls-11, .cls-12, .cls-13, .cls-14, .cls-15, .cls-16, .cls-17, .cls-18, .cls-19, .cls-20, .cls-21, .cls-22, .cls-23, .cls-24 {
          isolation: isolate;
        }

        .cls-1, .cls-2, .cls-3, .cls-5, .cls-6, .cls-9, .cls-10, .cls-11, .cls-18, .cls-20, .cls-22 {
          opacity: 1;
        }

        .cls-2 {
          fill: url(#_Áåçûìÿííûé_ãðàäèåíò_7);
        }

        .cls-3 {
          fill: url(#_Áåçûìÿííûé_ãðàäèåíò_3);
        }

        .cls-25 {
          fill: #a86969;
        }

        .cls-4 {
          fill: url(#_Áåçûìÿííûé_ãðàäèåíò_12-2);
          opacity: .71;
        }

        .cls-5 {
          fill: #dd568d;
        }

        .cls-26 {
          fill: #c19e9d;
        }

        .cls-27 {
          fill: #d5f6ff;
        }

        .cls-28, .cls-14 {
          fill: #0e3a6b;
        }

        .cls-29 {
          fill: url(#_Áåçûìÿííûé_ãðàäèåíò_25);
        }

        .cls-30 {
          fill: url(#_Áåçûìÿííûé_ãðàäèåíò_24);
        }

        .cls-31 {
          fill: #aee9f8;
        }

        .cls-6 {
          fill: #e3f3f7;
        }

        .cls-7 {
          fill: url(#_Áåçûìÿííûé_ãðàäèåíò_20);
        }

        .cls-7, .cls-19, .cls-23 {
          opacity: .65;
        }

        .cls-32 {
          fill: url(#_Áåçûìÿííûé_ãðàäèåíò_17);
        }

        .cls-8 {
          fill: url(#_Áåçûìÿííûé_ãðàäèåíò_12-4);
          opacity: .83;
        }

        .cls-9, .cls-33 {
          fill: #392727;
        }

        .cls-10, .cls-34 {
          fill: #ec8ef8;
        }

        .cls-35 {
          fill: url(#_Áåçûìÿííûé_ãðàäèåíò_13);
        }

        .cls-11 {
          fill: url(#_Áåçûìÿííûé_ãðàäèåíò_6);
        }

        .cls-12 {
          fill: #fff6e8;
        }

        .cls-12, .cls-13, .cls-15, .cls-24 {
          opacity: .74;
        }

        .cls-36 {
          fill: #f7eee6;
        }

        .cls-37 {
          fill: none;
        }

        .cls-38 {
          fill: #b2d1f2;
        }

        .cls-13 {
          fill: url(#_Áåçûìÿííûé_ãðàäèåíò_12);
        }

        .cls-14 {
          opacity: .5;
        }

        .cls-39 {
          fill: url(#_Áåçûìÿííûé_ãðàäèåíò_28);
        }

        .cls-15 {
          fill: #fae1d8;
        }

        .cls-40 {
          fill: #f24682;
        }

        .cls-16 {
          fill: url(#_Áåçûìÿííûé_ãðàäèåíò_12-5);
          opacity: .69;
        }

        .cls-41 {
          fill: url(#_Áåçûìÿííûé_ãðàäèåíò_32);
        }

        .cls-42 {
          clip-path: url(#clippath-1);
        }

        .cls-43, .cls-22 {
          fill: #81def6;
        }

        .cls-44 {
          fill: url(#_Áåçûìÿííûé_ãðàäèåíò_21);
        }

        .cls-45 {
          fill: url(#_Áåçûìÿííûé_ãðàäèåíò_35);
        }

        .cls-46 {
          fill: #fdfcfb;
        }

        .cls-47 {
          fill: url(#_Áåçûìÿííûé_ãðàäèåíò_34);
        }

        .cls-48 {
          fill: #9b6161;
        }

        .cls-17 {
          fill: #aac9eb;
          opacity: .47;
        }

        .cls-49 {
          fill: url(#_Áåçûìÿííûé_ãðàäèåíò_19);
        }

        .cls-50 {
          fill: url(#_Áåçûìÿííûé_ãðàäèåíò_29);
        }

        .cls-51 {
          fill: url(#_Áåçûìÿííûé_ãðàäèåíò_83-2);
        }

        .cls-18 {
          fill: url(#_Áåçûìÿííûé_ãðàäèåíò_2);
        }

        .cls-52 {
          fill: url(#_Áåçûìÿííûé_ãðàäèåíò_23);
        }

        .cls-53 {
          fill: url(#_Áåçûìÿííûé_ãðàäèåíò_31);
        }

        .cls-54 {
          fill: #ed8efc;
        }

        .cls-19, .cls-55 {
          fill: #ffe89f;
        }

        .cls-56 {
          fill: url(#_Áåçûìÿííûé_ãðàäèåíò_14);
        }

        .cls-20 {
          fill: url(#_Áåçûìÿííûé_ãðàäèåíò_5);
        }

        .cls-57 {
          fill: url(#_Áåçûìÿííûé_ãðàäèåíò_15);
        }

        .cls-58 {
          fill: url(#_Áåçûìÿííûé_ãðàäèåíò_26);
        }

        .cls-59 {
          fill: #f6b2ff;
        }

        .cls-60 {
          fill: #efd5d5;
        }

        .cls-61 {
          fill: url(#_Áåçûìÿííûé_ãðàäèåíò_27);
        }

        .cls-62 {
          fill: url(#_Áåçûìÿííûé_ãðàäèåíò_83);
        }

        .cls-21 {
          fill: url(#_Áåçûìÿííûé_ãðàäèåíò_12-3);
          opacity: .77;
        }

        .cls-63 {
          fill: #9b5757;
        }

        .cls-64 {
          fill: #bd7e7e;
        }

        .cls-65 {
          fill: #c78d8c;
        }

        .cls-66 {
          fill: url(#_Áåçûìÿííûé_ãðàäèåíò_22);
        }

        .cls-23 {
          fill: url(#_Áåçûìÿííûé_ãðàäèåíò_12-6);
        }

        .cls-67 {
          fill: #90605f;
        }

        .cls-68 {
          fill: url(#_Áåçûìÿííûé_ãðàäèåíò_18);
        }

        .cls-69 {
          clip-path: url(#clippath);
        }

        .cls-70 {
          fill: #fcfaf7;
        }

        .cls-71 {
          fill: #f5fafc;
        }

        .cls-72 {
          fill: url(#_Áåçûìÿííûé_ãðàäèåíò_33);
        }

        .cls-73 {
          fill: url(#_Áåçûìÿííûé_ãðàäèåíò_30);
        }

        .cls-74 {
          fill: url(#_Áåçûìÿííûé_ãðàäèåíò_16);
        }

        .cls-24 {
          fill: #fae0d8;
        }
      </style>
      <linearGradient id="_Áåçûìÿííûé_ãðàäèåíò_7" data-name="Áåçûìÿííûé ãðàäèåíò 7" x1="101.72" y1="-568.03" x2="83.48" y2="-562.52" gradientTransform="translate(0 -552.25) scale(1 -1)" gradientUnits="userSpaceOnUse">
        <stop offset="0" stop-color="#a21921"/>
        <stop offset="1" stop-color="#ac265d"/>
      </linearGradient>
      <linearGradient id="_Áåçûìÿííûé_ãðàäèåíò_2" data-name="Áåçûìÿííûé ãðàäèåíò 2" x1="119.89" y1="-581.82" x2="113.94" y2="-566.47" gradientTransform="translate(0 -552.25) scale(1 -1)" gradientUnits="userSpaceOnUse">
        <stop offset="0" stop-color="#a31b29"/>
        <stop offset="1" stop-color="#ac265a"/>
      </linearGradient>
      <linearGradient id="_Áåçûìÿííûé_ãðàäèåíò_3" data-name="Áåçûìÿííûé ãðàäèåíò 3" x1="72.47" y1="-590.62" x2="83.3" y2="-590.62" gradientTransform="translate(0 -552.25) scale(1 -1)" gradientUnits="userSpaceOnUse">
        <stop offset="0" stop-color="#ac2659"/>
        <stop offset="1" stop-color="#a31b29"/>
      </linearGradient>
      <linearGradient id="_Áåçûìÿííûé_ãðàäèåíò_4" data-name="Áåçûìÿííûé ãðàäèåíò 4" x1="81.28" y1="-564.8" x2="99.88" y2="-568.41" gradientTransform="translate(0 -552.25) scale(1 -1)" gradientUnits="userSpaceOnUse">
        <stop offset="0" stop-color="#dd568d"/>
        <stop offset="1" stop-color="#d93939"/>
      </linearGradient>
      <linearGradient id="_Áåçûìÿííûé_ãðàäèåíò_5" data-name="Áåçûìÿííûé ãðàäèåíò 5" x1="110.18" y1="-570.18" x2="119.81" y2="-577.08" gradientTransform="translate(0 -552.25) scale(1 -1)" gradientUnits="userSpaceOnUse">
        <stop offset="0" stop-color="#dd568d"/>
        <stop offset="1" stop-color="#da3e49"/>
      </linearGradient>
      <linearGradient id="_Áåçûìÿííûé_ãðàäèåíò_6" data-name="Áåçûìÿííûé ãðàäèåíò 6" x1="74.17" y1="-591.13" x2="81.88" y2="-589.89" gradientTransform="translate(0 -552.25) scale(1 -1)" gradientUnits="userSpaceOnUse">
        <stop offset="0" stop-color="#dd568d"/>
        <stop offset="1" stop-color="#da3d45"/>
      </linearGradient>
      <linearGradient id="_Áåçûìÿííûé_ãðàäèåíò_12" data-name="Áåçûìÿííûé ãðàäèåíò 12" x1="86.01" y1="-570.54" x2="75.61" y2="-564.88" gradientTransform="translate(0 -552.25) scale(1 -1)" gradientUnits="userSpaceOnUse">
        <stop offset="0" stop-color="#f28099"/>
        <stop offset="1" stop-color="#f2d4be"/>
      </linearGradient>
      <linearGradient id="_Áåçûìÿííûé_ãðàäèåíò_12-2" data-name="Áåçûìÿííûé ãðàäèåíò 12" x1="153.81" y1="-599.83" x2="152.41" y2="-600.21" gradientTransform="translate(-77.26 -580.09) rotate(.64) scale(1.03 -1) skewX(-1.26)" xlink:href="#_Áåçûìÿííûé_ãðàäèåíò_12"/>
      <linearGradient id="_Áåçûìÿííûé_ãðàäèåíò_12-3" data-name="Áåçûìÿííûé ãðàäèåíò 12" x1="74.61" y1="-592.82" x2="72.24" y2="-592.36" xlink:href="#_Áåçûìÿííûé_ãðàäèåíò_12"/>
      <linearGradient id="_Áåçûìÿííûé_ãðàäèåíò_12-4" data-name="Áåçûìÿííûé ãðàäèåíò 12" x1="76.13" y1="-588.09" x2="74.67" y2="-587.61" xlink:href="#_Áåçûìÿííûé_ãðàäèåíò_12"/>
      <linearGradient id="_Áåçûìÿííûé_ãðàäèåíò_12-5" data-name="Áåçûìÿííûé ãðàäèåíò 12" x1="110.94" y1="-568.64" x2="108.33" y2="-566.99" xlink:href="#_Áåçûìÿííûé_ãðàäèåíò_12"/>
      <linearGradient id="_Áåçûìÿííûé_ãðàäèåíò_12-6" data-name="Áåçûìÿííûé ãðàäèåíò 12" x1="108" y1="-571.56" x2="106.98" y2="-571.02" xlink:href="#_Áåçûìÿííûé_ãðàäèåíò_12"/>
      <linearGradient id="_Áåçûìÿííûé_ãðàäèåíò_13" data-name="Áåçûìÿííûé ãðàäèåíò 13" x1="103.39" y1="-620.09" x2="128.42" y2="-650.22" gradientTransform="translate(0 -552.25) scale(1 -1)" gradientUnits="userSpaceOnUse">
        <stop offset="0" stop-color="#dba3a3"/>
        <stop offset="1" stop-color="#bc7e7e"/>
      </linearGradient>
      <linearGradient id="_Áåçûìÿííûé_ãðàäèåíò_14" data-name="Áåçûìÿííûé ãðàäèåíò 14" x1="49.86" y1="-631.62" x2="138.93" y2="-631.62" gradientTransform="translate(0 -552.25) scale(1 -1)" gradientUnits="userSpaceOnUse">
        <stop offset="0" stop-color="#f4dfdf"/>
        <stop offset="1" stop-color="#d3a2a2"/>
      </linearGradient>
      <linearGradient id="_Áåçûìÿííûé_ãðàäèåíò_15" data-name="Áåçûìÿííûé ãðàäèåíò 15" x1="59.75" y1="-611.52" x2="91.63" y2="-643.3" gradientTransform="translate(0 -552.25) scale(1 -1)" gradientUnits="userSpaceOnUse">
        <stop offset="0" stop-color="#f8f2e9"/>
        <stop offset="1" stop-color="#efd5d5"/>
      </linearGradient>
      <linearGradient id="_Áåçûìÿííûé_ãðàäèåíò_16" data-name="Áåçûìÿííûé ãðàäèåíò 16" x1="106.27" y1="-660.54" x2="110.92" y2="-660.54" gradientTransform="translate(0 -552.25) scale(1 -1)" gradientUnits="userSpaceOnUse">
        <stop offset="0" stop-color="#bd7e7e"/>
        <stop offset="1" stop-color="#805252"/>
      </linearGradient>
      <linearGradient id="_Áåçûìÿííûé_ãðàäèåíò_17" data-name="Áåçûìÿííûé ãðàäèåíò 17" x1="54.32" y1="-623.99" x2="75.93" y2="-623.99" gradientTransform="translate(0 -552.25) scale(1 -1)" gradientUnits="userSpaceOnUse">
        <stop offset="0" stop-color="#d39b9b"/>
        <stop offset="1" stop-color="#b78585"/>
      </linearGradient>
      <linearGradient id="_Áåçûìÿííûé_ãðàäèåíò_18" data-name="Áåçûìÿííûé ãðàäèåíò 18" x1="86.52" y1="-626.11" x2="115.29" y2="-638.79" gradientTransform="translate(0 -552.25) scale(1 -1)" gradientUnits="userSpaceOnUse">
        <stop offset="0" stop-color="#3d86d9"/>
        <stop offset="1" stop-color="#225590"/>
      </linearGradient>
      <linearGradient id="_Áåçûìÿííûé_ãðàäèåíò_19" data-name="Áåçûìÿííûé ãðàäèåíò 19" x1="99.5" y1="-599.73" x2="106.51" y2="-599.73" gradientTransform="translate(0 -552.25) scale(1 -1)" gradientUnits="userSpaceOnUse">
        <stop offset="0" stop-color="#dd568d"/>
        <stop offset="1" stop-color="#a13360"/>
      </linearGradient>
      <clipPath id="clippath">
        <path class="cls-37" d="M72.63,85.73c-.88-5.5,1.86-10.51,6.12-11.19,4.26-.68,9.38,4.62,10.25,10.12.88,5.5-2.26,9.87-6.86,9.87-4.31,0-8.64-3.31-9.51-8.81Z"/>
      </clipPath>
      <clipPath id="clippath-1">
        <path class="cls-37" d="M93.65,79.12c-.88-5.5,1.86-10.51,6.12-11.19,4.26-.68,9.38,4.62,10.25,10.12s-2.26,9.87-6.86,9.87c-4.31,0-8.64-3.31-9.52-8.81Z"/>
      </clipPath>
      <linearGradient id="_Áåçûìÿííûé_ãðàäèåíò_20" data-name="Áåçûìÿííûé ãðàäèåíò 20" x1="103.47" y1="-600.03" x2="100.47" y2="-599.23" gradientTransform="translate(0 -552.25) scale(1 -1)" gradientUnits="userSpaceOnUse">
        <stop offset="0" stop-color="#e9a0be"/>
        <stop offset="1" stop-color="#f6d6be"/>
      </linearGradient>
      <linearGradient id="_Áåçûìÿííûé_ãðàäèåíò_21" data-name="Áåçûìÿííûé ãðàäèåíò 21" x1="-1687.16" y1="-1118.14" x2="-1682.37" y2="-1118.14" gradientTransform="translate(1134.82 -572.17) scale(.61 -.61)" gradientUnits="userSpaceOnUse">
        <stop offset="0" stop-color="#d39b9b"/>
        <stop offset="1" stop-color="#6b2626"/>
      </linearGradient>
      <linearGradient id="_Áåçûìÿííûé_ãðàäèåíò_22" data-name="Áåçûìÿííûé ãðàäèåíò 22" x1="53.69" y1="-714.4" x2="36.5" y2="-697.22" gradientTransform="translate(0 -552.25) scale(1 -1)" gradientUnits="userSpaceOnUse">
        <stop offset="0" stop-color="#c18585"/>
        <stop offset="1" stop-color="#f3dede"/>
      </linearGradient>
      <linearGradient id="_Áåçûìÿííûé_ãðàäèåíò_23" data-name="Áåçûìÿííûé ãðàäèåíò 23" x1="48.65" y1="-712.87" x2="45.9" y2="-699.52" gradientTransform="translate(0 -552.25) scale(1 -1)" gradientUnits="userSpaceOnUse">
        <stop offset="0" stop-color="#e1bdbd"/>
        <stop offset="1" stop-color="#fceee3"/>
      </linearGradient>
      <linearGradient id="_Áåçûìÿííûé_ãðàäèåíò_24" data-name="Áåçûìÿííûé ãðàäèåíò 24" x1="68.19" y1="-693.88" x2="117.53" y2="-747.03" gradientTransform="translate(0 -552.25) scale(1 -1)" gradientUnits="userSpaceOnUse">
        <stop offset="0" stop-color="#f4dfdf"/>
        <stop offset="1" stop-color="#d4a4a4"/>
      </linearGradient>
      <linearGradient id="_Áåçûìÿííûé_ãðàäèåíò_25" data-name="Áåçûìÿííûé ãðàäèåíò 25" x1="56.2" y1="-692.58" x2="84.41" y2="-715.38" gradientTransform="translate(0 -552.25) scale(1 -1)" gradientUnits="userSpaceOnUse">
        <stop offset="0" stop-color="#fff5e7"/>
        <stop offset="1" stop-color="#efd5d5"/>
      </linearGradient>
      <linearGradient id="_Áåçûìÿííûé_ãðàäèåíò_26" data-name="Áåçûìÿííûé ãðàäèåíò 26" x1="124.84" y1="-737.43" x2="150.73" y2="-773.58" gradientTransform="translate(0 -552.25) scale(1 -1)" gradientUnits="userSpaceOnUse">
        <stop offset="0" stop-color="#c08282"/>
        <stop offset="1" stop-color="#d29b9b"/>
      </linearGradient>
      <linearGradient id="_Áåçûìÿííûé_ãðàäèåíò_27" data-name="Áåçûìÿííûé ãðàäèåíò 27" x1="163.7" y1="-726.27" x2="131.84" y2="-716.43" gradientTransform="translate(0 -552.25) scale(1 -1)" gradientUnits="userSpaceOnUse">
        <stop offset="0" stop-color="#c38686"/>
        <stop offset="1" stop-color="#d6a7a7"/>
      </linearGradient>
      <linearGradient id="_Áåçûìÿííûé_ãðàäèåíò_28" data-name="Áåçûìÿííûé ãðàäèåíò 28" x1="13.9" y1="-744.68" x2="8.57" y2="-735.88" gradientTransform="translate(0 -552.25) scale(1 -1)" gradientUnits="userSpaceOnUse">
        <stop offset="0" stop-color="#c58988"/>
        <stop offset="1" stop-color="#f4dfdf"/>
      </linearGradient>
      <linearGradient id="_Áåçûìÿííûé_ãðàäèåíò_29" data-name="Áåçûìÿííûé ãðàäèåíò 29" x1="12.7" y1="-738.84" x2="8.52" y2="-731.89" gradientTransform="translate(0 -552.25) scale(1 -1)" gradientUnits="userSpaceOnUse">
        <stop offset="0" stop-color="#e7c8c8"/>
        <stop offset="1" stop-color="#fcefe4"/>
      </linearGradient>
      <linearGradient id="_Áåçûìÿííûé_ãðàäèåíò_30" data-name="Áåçûìÿííûé ãðàäèåíò 30" x1="61.14" y1="-792.02" x2="49.39" y2="-770.87" gradientTransform="translate(0 -552.25) scale(1 -1)" gradientUnits="userSpaceOnUse">
        <stop offset="0" stop-color="#c58888"/>
        <stop offset="1" stop-color="#f4dfdf"/>
      </linearGradient>
      <linearGradient id="_Áåçûìÿííûé_ãðàäèåíò_31" data-name="Áåçûìÿííûé ãðàäèåíò 31" x1="61.44" y1="-787.86" x2="65.01" y2="-792.33" gradientTransform="translate(-7.71 -552.78) scale(1 -1)" gradientUnits="userSpaceOnUse">
        <stop offset="0" stop-color="#c68a8b"/>
        <stop offset="1" stop-color="#814545"/>
      </linearGradient>
      <linearGradient id="_Áåçûìÿííûé_ãðàäèåíò_32" data-name="Áåçûìÿííûé ãðàäèåíò 32" x1="81.28" y1="-751.66" x2="119.32" y2="-746.03" gradientTransform="translate(0 -552.25) scale(1 -1)" gradientUnits="userSpaceOnUse">
        <stop offset="0" stop-color="#e3b5b5"/>
        <stop offset="1" stop-color="#c08282"/>
      </linearGradient>
      <linearGradient id="_Áåçûìÿííûé_ãðàäèåíò_33" data-name="Áåçûìÿííûé ãðàäèåíò 33" x1="101.85" y1="-687.21" x2="121.5" y2="-695.2" gradientTransform="translate(0 -552.25) scale(1 -1)" gradientUnits="userSpaceOnUse">
        <stop offset="0" stop-color="#dfc3bc"/>
        <stop offset="1" stop-color="#c08282"/>
      </linearGradient>
      <linearGradient id="_Áåçûìÿííûé_ãðàäèåíò_34" data-name="Áåçûìÿííûé ãðàäèåíò 34" x1="536.95" y1="744.89" x2="542.13" y2="744.89" gradientTransform="translate(182.53 1206.31) rotate(-32.94) scale(1 -1.2)" gradientUnits="userSpaceOnUse">
        <stop offset="0" stop-color="#daf6fe"/>
        <stop offset="1" stop-color="#eaf0f2"/>
      </linearGradient>
      <linearGradient id="_Áåçûìÿííûé_ãðàäèåíò_35" data-name="Áåçûìÿííûé ãðàäèåíò 35" x1="65.4" y1="-506.54" x2="72" y2="-510.06" gradientTransform="translate(-32.62 -338.36) rotate(-4.73) scale(1 -1)" gradientUnits="userSpaceOnUse">
        <stop offset="0" stop-color="#c38686"/>
        <stop offset="1" stop-color="#e0bbbb"/>
      </linearGradient>
      <linearGradient id="_Áåçûìÿííûé_ãðàäèåíò_83" data-name="Áåçûìÿííûé ãðàäèåíò 83" x1="102.25" y1="-754.78" x2="94.21" y2="-747.94" gradientTransform="translate(0 -552.25) scale(1 -1)" gradientUnits="userSpaceOnUse">
        <stop offset="0" stop-color="#c45884"/>
        <stop offset="1" stop-color="#ddb28c"/>
      </linearGradient>
      <linearGradient id="_Áåçûìÿííûé_ãðàäèåíò_83-2" data-name="Áåçûìÿííûé ãðàäèåíò 83" x1="97.1" y1="-764.23" x2="91.72" y2="-759.59" xlink:href="#_Áåçûìÿííûé_ãðàäèåíò_83"/>
    </defs>
    <g id="Layer_3" data-name="Layer 3">
      <g>
        <path class="cls-33" d="M74.52,132.92c-.62,0-1.23-.08-1.81-.26-8.63-2.63-9.78-25.33-9.88-27.91-.03-.83.61-1.53,1.44-1.56.82-.02,1.53.61,1.56,1.44.36,8.92,2.78,23.65,7.75,25.16,4.99,1.52,15.52-9.28,20.98-16.44.5-.66,1.44-.79,2.1-.28.66.5.79,1.44.28,2.1-1.47,1.93-13.8,17.76-22.43,17.76Z"/>
        <path class="cls-33" d="M77.97,144.33c-1.61,0-3.26-.3-4.93-.92-8.57-3.12-14.07-11.98-15.91-25.62-1.12-8.31-.49-15.32-.46-15.61.08-.82.81-1.43,1.63-1.35.82.08,1.43.81,1.35,1.63,0,.07-.63,6.98.45,14.93,1.18,8.69,4.55,19.77,13.97,23.2,3.16,1.16,6.06.95,8.86-.61,10.43-5.84,15.07-28.21,15.12-28.44.16-.81.96-1.33,1.77-1.17.81.16,1.34.96,1.17,1.77-.2.97-4.96,23.95-16.59,30.46-2.06,1.15-4.2,1.73-6.42,1.73Z"/>
        <path class="cls-33" d="M112.08,232.26c-18.45,0-32.06-16.31-32.22-16.51-.52-.64-.43-1.58.21-2.11.64-.52,1.58-.43,2.11.21.18.22,18.36,21.97,40.36,13.41,21.86-8.5,16.34-39.93,16.28-40.25-.15-.81.39-1.6,1.2-1.75.81-.15,1.6.39,1.75,1.2.06.34,6.04,34.19-18.14,43.59-3.99,1.55-7.87,2.2-11.54,2.2Z"/>
        <path class="cls-9" d="M95.76,56.46c-.14,0-.29-.02-.43-.06-.79-.24-1.24-1.08-1-1.87.03-.1,2.97-10.12.15-22.18-2.75-11.78-11.25-16.62-11.33-16.67-.72-.4-.99-1.31-.59-2.04.4-.72,1.31-.99,2.03-.59.4.22,9.74,5.48,12.81,18.61,3.01,12.88-.07,23.3-.2,23.73-.2.65-.79,1.06-1.43,1.06Z"/>
        <path class="cls-2" d="M76.76,16.07c-3.34-6.22,4.12-15.12,11.14-6.08-2.92-11.81,8.03-12.23,11.37-6.02,1.67,3.11,1.79,8.11,1.23,12.06-.56,3.95-1.81,6.84-4.92,8.51-6.22,3.34-15.48-2.25-18.82-8.47Z"/>
        <path class="cls-18" d="M108.23,15.6c1.53-4.53,9.38-4.96,8.17,2.7,4.49-6.91,9.77-1.69,8.24,2.84-.76,2.26-3.19,4.64-5.4,6.19-2.22,1.55-4.22,2.27-6.49,1.5-4.53-1.53-6.05-8.7-4.52-13.23Z"/>
        <path class="cls-3" d="M73.86,42.66c-2.56-1.65-1.6-6.56,2.93-4.62-3.56-3.84.48-6.29,3.03-4.64,1.28.82,2.37,2.69,2.98,4.29.61,1.61.74,2.96-.08,4.24-1.65,2.56-6.31,2.38-8.86.73Z"/>
        <path class="cls-5" d="M75.46,17.66c-3.34-6.22,4.12-15.12,11.14-6.08-2.92-11.81,8.03-12.23,11.37-6.02,1.67,3.11,1.79,8.11,1.23,12.06-.56,3.95-1.81,6.84-4.92,8.51-6.22,3.34-15.48-2.25-18.82-8.47Z"/>
        <path class="cls-1" d="M75.46,17.66c-3.34-6.22,4.12-15.12,11.14-6.08-2.92-11.81,8.03-12.23,11.37-6.02,1.67,3.11,1.79,8.11,1.23,12.06-.56,3.95-1.81,6.84-4.92,8.51-6.22,3.34-15.48-2.25-18.82-8.47Z"/>
        <path class="cls-10" d="M99.43,11.27s.05.72.07,1.43c.01.49,0,1,0,1.17-.02,1.3-.13,2.58-.3,3.76-.36,2.53-1,4.62-2.23,6.24-.22.29-.45.56-.71.81-.35.35-.73.67-1.16.96-.26.18-.82.5-.82.5,0,0,2.4-1.52,3.57-7.68,1.24-6.55,1.58-7.19,1.58-7.19Z"/>
        <path class="cls-20" d="M106.84,15.7c1.53-4.53,9.39-4.96,8.17,2.7,4.49-6.91,9.77-1.69,8.24,2.84-.76,2.26-3.19,4.64-5.4,6.19-2.22,1.55-4.22,2.27-6.49,1.5-4.53-1.53-6.05-8.7-4.52-13.23Z"/>
        <path class="cls-10" d="M123.25,21.24c-.76,2.26-3.19,4.64-5.4,6.19-2.22,1.55-4.22,2.27-6.49,1.5-2.09-.7,1.12.21,5.47-1.8,1.24-.57,2.69-1.61,3.61-2.57,2.23-2.32,3.39-5.06,2.81-3.32Z"/>
        <path class="cls-11" d="M72.83,42.66c-2.56-1.65-1.6-6.56,2.93-4.62-3.56-3.84.48-6.29,3.03-4.64,1.28.82,2.37,2.69,2.98,4.29.61,1.61.75,2.96-.08,4.24-1.65,2.56-6.31,2.38-8.86.73Z"/>
        <path class="cls-13" d="M77.63,9.78c2.4-1.66,5.76-.96,7.52,1.57.78,1.13,1.7,3.52.18,6.86-1.2,2.66,1.87,2.64.8,5.63-.99,2.74-7.52-3.01-9.27-5.54-1.76-2.53-1.62-6.86.78-8.52Z"/>
        <path class="cls-4" d="M86.76,23.45c.28-.79,1.2-1.19,2.06-.88.86.31,1.32,1.19,1.04,1.98-.28.79-1.2,1.18-2.06.88s-1.32-1.19-1.04-1.98Z"/>
        <path class="cls-21" d="M71.83,40.35c-.19-.99.42-1.94,1.36-2.12.94-.18,1.86.48,2.05,1.47.19.99.01,2.76-.93,2.94-.94.18-2.28-1.3-2.48-2.29Z"/>
        <path class="cls-8" d="M74.85,35.88c-.11-.57.19-1.11.67-1.21s.96.3,1.07.87c.11.57-.19,1.11-.67,1.21s-.96-.3-1.07-.87Z"/>
        <path class="cls-16" d="M107.65,17.74c-.77-.88.18-2.73,1.12-3.56s2.76-1.22,3.53-.34c1.13,1.29.22,2.71-.73,3.54-.94.83-3.15,1.24-3.93.36Z"/>
        <path class="cls-23" d="M107.05,19.19c0-.4.32-.73.71-.73s.71.33.71.73-.32.73-.71.73-.71-.33-.71-.73Z"/>
        <path class="cls-12" d="M77.2,12.34c0-1.09.85-1.98,1.91-1.98s1.91.89,1.91,1.98-.85,1.98-1.91,1.98-1.91-.89-1.91-1.98Z"/>
        <path class="cls-24" d="M77.13,15.11c0-.41.34-.75.75-.75s.75.34.75.75-.34.75-.75.75-.75-.34-.75-.75Z"/>
        <path class="cls-15" d="M72.81,41.03c-.53-.17-.81-.78-.62-1.35.19-.57.77-.89,1.3-.72.53.17.81.78.62,1.35-.19.57-.77.89-1.3.72Z"/>
        <path class="cls-15" d="M104.58,103.87h8.25v7.98h-8.25v-7.98Z"/>
        <path class="cls-43" d="M46.74,86.59l5.52,3.03v12.7s-2.71-1.51-3.79-2.33-2.95-4.06-3.44-7.27c-.48-3.21,1.71-6.13,1.71-6.13Z"/>
        <path class="cls-26" d="M47.96,80.71c.86-1.04,3.51-2.82,3.51-2.82l9.96,28.3s-5,.72-7.9-1.32c-2.9-2.04-5.32-5.55-6.51-11.42-1.2-5.88.08-11.69.94-12.73Z"/>
        <path class="cls-35" d="M62.72,67.54c2.32-4.59,10.49-11.41,37.97-21.17,27.48-9.76,44.65-3.45,47.46-1.21,2.82,2.24,3.54,12.9-.25,28.96-3.79,16.06-10.25,30.53-13.88,34.15-3.63,3.62-10.54,6.85-23.21,8.83-12.67,1.98-23.47,1.21-28.73-.78-5.26-2-11.06-10.27-16.05-22.69-4.98-12.42-5.63-21.49-3.32-26.08Z"/>
        <path class="cls-59" d="M125,41.19c13.19-.76,21.3,2.48,23.15,3.97,2.82,2.24,3.54,12.9-.25,28.96-2.1,8.9,6.87-13.28.51-24.88-1.44-2.63-2.94-3.59-5.85-4.95-7.42-3.46-19.74-2.97-17.57-3.09Z"/>
        <path class="cls-34" d="M147.9,74.12c-3.79,16.06-10.25,30.53-13.88,34.15-3.63,3.62-10.54,6.85-23.21,8.83-3.4.53,1.49-.13,8.29-2.8,4.83-1.9,10.69-4.59,14.9-9.61,11.95-14.25,15.95-39.26,13.9-30.57Z"/>
        <path class="cls-56" d="M51.14,67.28c2.32-4.59,8.26-11.51,35.75-21.27,27.48-9.76,46.88-3.35,49.69-1.11,2.82,2.25,3.54,12.9-.25,28.96-3.79,16.06-10.25,30.53-13.88,34.15-3.63,3.62-10.54,6.84-23.21,8.83-12.67,1.98-23.47,1.21-28.73-.78-5.26-2-11.07-10.27-16.05-22.69-4.98-12.42-5.63-21.49-3.32-26.08Z"/>
        <path class="cls-57" d="M51.14,67.28c1.7-3.38,5.36-8.01,18.09-14.1,4.59-2.2,10.37-4.59,17.65-7.18,15.53-5.52,22.65,30.8,13.91,52.13-6.72,16.41-28,18.79-30.29,17.93-5.26-2-11.07-10.27-16.05-22.69-4.98-12.42-5.63-21.49-3.32-26.08Z"/>
        <path class="cls-74" d="M106.27,102.33l2.2,7.25,2.45,4.68-3.67-4.78-.98-7.14Z"/>
        <path class="cls-32" d="M73.15,51.38l-3.86,25.04-15.3,15.68,13.9-17.76,5.26-22.96Z"/>
        <path class="cls-68" d="M59.3,71.8c.77-3.17,18.25-14.19,35.09-17.71,16.84-3.52,26.53-1.67,29.33.58,2.81,2.25,4.5,12.38,2.17,22.31-2.33,9.93-5.68,16.65-8.72,20.18-3.04,3.54-9.32,7.81-20.14,9.5s-20.49-.9-23.1-2.66c-2.61-1.76-7.84-6.28-11.47-14.32-3.62-8.03-3.93-14.72-3.17-17.89Z"/>
        <path class="cls-14" d="M111.87,52.13c6.3.07,10.23,1.24,11.85,2.55,2.81,2.25,4.5,12.38,2.17,22.31-2.33,9.93-5.68,16.65-8.72,20.18-3.04,3.54-9.32,7.81-20.14,9.5s-20.49-.9-23.1-2.66c-1.45-.98,18.73-.11,29.07-14.13,6.17-8.36,12-20.66,8.55-28.41-4.17-9.35-14.51-5.63-14.36-7.48.09-1.08,14.34-1.87,14.67-1.87Z"/>
        <path class="cls-28" d="M125.89,76.99c-2.33,9.93-5.68,16.65-8.72,20.18-3.04,3.54-9.32,7.81-20.14,9.5-5.5.86,7.97-.33,17-9.3,8.75-8.69,13-25.27,11.86-20.38Z"/>
        <path class="cls-28" d="M59.3,71.8c.77-3.17,18.25-14.19,35.09-17.71,7.9-1.65,14.23-2.12,19.01-1.92,2.87.12,5.18.48,6.94.97,1.56.43-16.46-1.48-33.28,4.76-12.45,4.62-25.41,15.5-25.41,15.5,0,0-.25,8.87,2.31,16,3.31,9.2,11.43,15.59,9.97,14.6-2.61-1.76-7.84-6.28-11.47-14.32-3.62-8.03-3.93-14.72-3.17-17.89Z"/>
        <path class="cls-67" d="M138.93,56.94c2.5-1.62,6.28-2.74,11.04-1.36,4.76,1.38,6.85,4.19,7.88,8.8,1.03,4.61-2.24,22-9.23,27.73-6.99,5.73-17.02-.17-18.97-2.23s.77-11.02,3.15-19.3c2.38-8.28,3.63-12.02,6.13-13.63Z"/>
        <path class="cls-36" d="M138.93,56.94c.22-.14,3.1-2.43,3.16-.15.09,3.53-2.9,12.85-4.35,17.96-1.5,5.25-3.47,13.67-5.34,16.4-1.11,1.63-2.65-1.17-2.75-1.27-1.95-2.06.77-11.02,3.15-19.3,2.38-8.28,3.63-12.02,6.13-13.63Z"/>
        <path class="cls-17" d="M76.83,98.85c-2.66-3.8,1.05-7.83,5.18-8.85,4.74-1.17,11.65-1.22,12.39-8.21,1.42-13.45,20.76-24.64,26.48-16.49s-.35,25.88-11.11,33.43c-10.75,7.55-27.21,8.26-32.94.11Z"/>
        <path class="cls-64" d="M100.44,48.53c-.33-1.73.95-3.43,2.85-3.79,1.91-.36,3.72.74,4.05,2.47.33,1.73-.95,3.43-2.85,3.79s-3.72-.74-4.05-2.47Z"/>
        <path class="cls-49" d="M99.56,48.15c-.33-1.73.95-3.42,2.85-3.79,1.9-.36,3.72.74,4.05,2.47.33,1.73-.95,3.42-2.85,3.79-1.91.36-3.72-.74-4.05-2.47Z"/>
        <path class="cls-22" d="M143.57,68.34c.79-2.82,3.71-4.47,6.53-3.68l.54.15c2.82.79,4.47,3.71,3.68,6.53l-3.09,11.08c-.79,2.82-3.71,4.47-6.53,3.68l-.54-.15c-2.82-.79-4.47-3.71-3.68-6.53l3.09-11.08Z"/>
        <path class="cls-6" d="M146.93,72.34c.4-1.43,1.26-2.44,1.92-2.26l.13.03c.66.18.87,1.5.47,2.93l-1.57,5.63c-.4,1.43-1.26,2.45-1.92,2.26l-.13-.03c-.66-.18-.87-1.5-.47-2.93l1.57-5.63Z"/>
        <g>
          <path id="Fill" class="cls-27" d="M72.63,85.73c-.88-5.5,1.86-10.51,6.12-11.19,4.26-.68,9.38,4.62,10.25,10.12.88,5.5-2.26,9.87-6.86,9.87-4.31,0-8.64-3.31-9.51-8.81Z"/>
          <g class="cls-69">
            <path class="cls-71" d="M76.93,90.07c.82-1.17,2.59-1.34,3.95-.39s1.8,2.68.98,3.85c-.82,1.17-2.59,1.34-3.95.39-1.36-.96-1.8-2.68-.98-3.85Z"/>
          </g>
        </g>
        <g>
          <path id="Fill_2" data-name="Fill 2" class="cls-27" d="M93.65,79.12c-.88-5.5,1.86-10.51,6.12-11.19,4.26-.68,9.38,4.62,10.25,10.12s-2.26,9.87-6.86,9.87c-4.31,0-8.64-3.31-9.52-8.81Z"/>
          <g class="cls-42">
            <path class="cls-71" d="M97.95,83.46c.82-1.17,2.59-1.34,3.95-.39,1.36.96,1.8,2.68.98,3.85s-2.59,1.34-3.95.39c-1.36-.96-1.8-2.68-.98-3.85Z"/>
          </g>
        </g>
        <path class="cls-38" d="M82.27,69.23c1.6-1.24-2.7-3.42-5.98-1.36-3.29,2.06-5.68,7.51-5.68,7.51,0,0,2.17-3.23,5.68-5.4,2.58-1.59,5.2-.14,5.98-.74Z"/>
        <path class="cls-38" d="M94.11,66.64c-1.9-.06.87-3.48,4.45-3.74,3.58-.27,8.69,2.6,8.69,2.6,0,0-3.55-1.28-7.36-.97-2.79.22-4.86,2.14-5.78,2.11Z"/>
        <path class="cls-70" d="M51.36,75.44c-.26-3.05,1.4-6.06,3.12-6.21,1.72-.15,3.57,2.96,2.5,6.95-.8,2.95.49,7.29-1.23,7.44s-4.13-5.13-4.39-8.18Z"/>
        <path class="cls-70" d="M55.43,66.65c-.81-1.01-.56-2.56.57-3.48,1.13-.91,2.7-.83,3.52.18.81,1.01.56,2.57-.57,3.48s-2.7.83-3.52-.18Z"/>
        <path class="cls-70" d="M60.5,62.42c-.47-.58-.32-1.46.33-1.98.64-.52,1.54-.47,2,.1.46.58.32,1.46-.33,1.98-.64.52-1.54.47-2-.1Z"/>
        <path class="cls-7" d="M100.08,47.39c0-1.07.85-1.94,1.9-1.94s1.9.87,1.9,1.94-.85,1.94-1.9,1.94-1.9-.87-1.9-1.94Z"/>
        <path class="cls-19" d="M62.43,73.41l8.18-5.54-5.89,6.88-1.62,7.93-.67-9.28Z"/>
        <path class="cls-55" d="M107.39,98.38c5.7-3.66,9.66-7.23,9.66-7.23,0,0-2.61,4.73-8.31,8.39-5.7,3.66-10.6,4.33-10.6,4.33,0,0,3.55-1.83,9.25-5.49Z"/>
        <path class="cls-60" d="M110.1,107.21c0-.81.65-1.46,1.46-1.46s1.46.65,1.46,1.46-.65,1.46-1.46,1.46-1.46-.65-1.46-1.46Z"/>
        <path class="cls-44" d="M109.7,107.21c0-.81.65-1.46,1.46-1.46s1.46.65,1.46,1.46-.65,1.46-1.46,1.46-1.46-.65-1.46-1.46Z"/>
        <path class="cls-66" d="M33.28,152.78c16.83-11.39,36-21.55,36-21.55,0,0-4.87,27.34-17.03,38.45-12.16,11.1-25.75,11.53-31.61,5.97s-4.19-11.47,12.64-22.86Z"/>
        <path class="cls-52" d="M33.28,152.78c16.83-11.39,36-21.55,36-21.55,0,0-5.79,5.83-17.95,16.94-3.04,2.77-4.47,7.98-7.9,9.89-3.29,1.83-7,3.82-10.17,4.49-6.79,1.43-11.93-.16-10.97-1.12,1.17-1.16,2.57-2.39,4.22-3.71,1.91-1.52,4.16-3.16,6.77-4.93Z"/>
        <path class="cls-31" d="M33.28,152.78c16.83-11.39,36-21.55,36-21.55,0,0,2.27-2.21-9.88,8.89-3.04,2.77-28.73,14.43-26.12,12.66Z"/>
        <path class="cls-30" d="M70.31,130.06c5.62-3.48,15.77-4.59,31.43-3.78,15.66.81,27.3,3.89,31.21,7.03,3.9,3.13,24.3,31.43,17.56,53.41-6.75,21.98-37.51,34.43-44.54,35.58s-28.16-1.58-44.54-12.19c-16.38-10.61-19.5-23.91-20.98-31.3-1.48-7.4.57-15.88,8.16-27.56,7.58-11.67,16.08-17.71,21.7-21.19Z"/>
        <path class="cls-31" d="M101.74,126.29c15.66.81,27.3,3.89,31.21,7.03,1.26,1.01-.53,7.06-2.76,12.61-.54,1.34-2.93,2.09-3.2,3.38-1.13,5.38,6.41-8.38-.92-14.61-9.34-7.95-33.11-8.85-24.34-8.4Z"/>
        <path class="cls-29" d="M70.31,130.06c5.62-3.48,15.77-4.59,31.43-3.78,7.41.39,4.7,30.12-11.2,43.39-17.71,14.77-49.3,13.03-50.08,9.14-1.48-7.4.57-15.88,8.16-27.56,7.58-11.67,16.08-17.71,21.7-21.19Z"/>
        <path class="cls-58" d="M132.95,133.31c3.9,3.13,24.3,31.43,17.56,53.41-6.75,21.98-37.51,34.43-44.54,35.58s23.07-92.13,26.98-88.99Z"/>
        <path class="cls-54" d="M150.51,186.73c-6.75,21.98-37.51,34.43-44.54,35.58-3.34.55,15.84-6.37,28.03-17.79,13.43-12.58,20.04-29.32,16.51-17.79Z"/>
        <path class="cls-61" d="M138.93,140.12c4.58,0,15.75,11.89,24.06,26.54,8.32,14.65,12.62,27.97,3.79,31.73-8.83,3.76-24.37-5.56-32.32-19.12-4.1-7-7.5-18.7-5.48-27.37,1.9-8.13,5.36-11.78,9.94-11.78Z"/>
        <path class="cls-64" d="M138.93,140.12c4.58,0,15.75,11.89,24.06,26.54,8.32,14.65,12.62,27.97,3.79,31.73-.72.31-2.54.8-4.44.84-2.84.06-5.97-.65-6.68-2.56-1.26-3.38,6.55-9.53,6.38-17.53-.18-8.06-5.38-18.71-10.18-25.36-6.27-8.68-14.44-13.66-12.93-13.66Z"/>
        <path class="cls-31" d="M156.72,182.86c-1.7,0-3.62-.59-5.64-1.77-3.26-1.9-6.46-5.13-9-9.1-5.46-8.52-6.15-17.51-1.55-20.46,4.6-2.95,12.48,1.42,17.94,9.95,3.92,6.11,5.63,12.46,4.48,16.56-.44,1.54-1.53,3-2.93,3.89-.96.62-2.07.92-3.29.92ZM143.83,152.61c-.83,0-1.59.19-2.23.61-3.53,2.26-2.54,10.37,2.15,17.69,2.38,3.71,5.33,6.71,8.33,8.45,2.78,1.62,5.22,1.94,6.85.89.98-.63,1.78-1.68,2.08-2.75,1.01-3.57-.62-9.3-4.23-14.94-3.84-6-9.2-9.95-12.95-9.95Z"/>
        <path class="cls-63" d="M157.43,182.63c-4.41,0-10.2-4.21-14.56-11.01-5.46-8.52-6.29-17.42-1.88-20.24,4.41-2.83,12.15,1.64,17.61,10.16,5.46,8.52,6.29,17.42,1.88,20.25-.9.57-1.93.85-3.05.85ZM144.08,152.52c-.76,0-1.44.18-2.02.55-3.35,2.15-2.21,10.15,2.49,17.48,4.7,7.33,11.5,11.71,14.85,9.56,3.35-2.15,2.21-10.15-2.48-17.48-3.89-6.06-9.21-10.1-12.83-10.1Z"/>
        <path class="cls-31" d="M138.93,140.12c4.58,0,15.75,11.89,24.06,26.54,4.12,7.26-2.21-3.9-10.24-13.7-2.51-3.06-7.74-7.19-10.71-9.04-4.21-2.61-8.27-1.89-7.41-2.49,1.29-.89,2.72-1.32,4.29-1.32Z"/>
        <path class="cls-64" d="M161.03,204.53c.71-1.64,2.61-3.43,6.39-4.33,3.78-.89,7.06-.33,8.87,1.4,1.81,1.73,4.45,7.47,3.33,14.24-1.12,6.77-4.47,10.83-7.95,11.56s-6.91-2.31-9.57-8.18c-2.66-5.87-1.77-13.05-1.06-14.69Z"/>
        <path class="cls-54" d="M179.61,215.84c-1.12,6.77-4.47,10.83-7.95,11.56-1.55.33,2.35-2.69,4.54-6.19,2.72-4.35,4.03-9.12,3.41-5.37Z"/>
        <path class="cls-64" d="M156.33,204.67c1.71-.6,3.01.7,3.33,1.78s.78,4.88-1.12,7.2c-1.9,2.32-4.65,4.38-6.68.98-2.03-3.4,2.75-9.35,4.47-9.95Z"/>
        <path class="cls-39" d="M13.77,175.61c2.5-1.95,7.67-1.14,7.45,3.53-.21,4.67-3.69,10.97-8.46,15.77C8,199.72-.07,200.48,0,195.36c.03-2.51,2.88-6.34,5.93-10.34,3.17-4.14,6.57-8.42,7.84-9.41Z"/>
        <path class="cls-50" d="M13.77,175.61c.78-.61,1.82-.95,2.88-.99,1.09-.04-.9,5.66-4.56,9.35-4.11,4.14-9.97,6.26-9.04,4.93.87-1.25,1.86-2.56,2.88-3.88,3.17-4.14,6.57-8.42,7.84-9.41Z"/>
        <path class="cls-65" d="M22.64,181.18c.76-.67,3.07-.82,3.4,1.46.33,2.28-.12,5.51-2.07,7.68-1.95,2.16-4.72,2.68-5.55-.12-.4-1.33.76-3.31,1.75-5.06,1.1-1.94,2.08-3.6,2.48-3.96Z"/>
        <path class="cls-65" d="M55.67,214.69c5.76-1.04,11.98,4.05,16.79,7.86,4.81,3.81,8.34,11.74,8.34,14.85s-10.81,9.21-21.85,11.1c-11.03,1.89-19.11-1.53-20.82-11.41-1.71-9.89,11.77-21.36,17.53-22.4Z"/>
        <path class="cls-73" d="M55.67,214.69c5.76-1.04,11.98,4.05,16.79,7.86,4.81,3.81,8.34,11.74,8.34,14.85s-10.81,9.21-21.85,11.1c-11.03,1.89-19.11-1.53-20.82-11.41-1.71-9.89,11.77-21.36,17.53-22.4Z"/>
        <path class="cls-54" d="M72.58,244.14c-3.88,1.86-8.73,3.53-13.62,4.37-8.05,1.38-14.53-.07-18.11-4.79-.67-.88,8.52,1.44,17.31,1.49,8.61.04,16.84-2.22,14.42-1.06Z"/>
        <path class="cls-53" d="M56.53,235.48c6.6-3.46,14.83-1.77,14.83-1.77,0,0-9.43-3.98-16.03-.52-6.6,3.46-10.37,14.35-10.37,14.35,0,0,4.97-8.6,11.57-12.06Z"/>
        <path class="cls-54" d="M55.67,214.69c5.76-1.04,11.98,4.05,16.79,7.86,4.81,3.81,8.34,11.74,8.34,14.85,0,.98-3.46.43-7.66-1.67-3.69-1.84-7.91-4.95-11.49-8.23-5.28-4.83-8.35-12.4-5.99-12.82Z"/>
        <path class="cls-63" d="M55.67,214.69c5.76-1.04,11.98,4.05,16.79,7.86,4.81,3.81,8.34,11.74,8.34,14.85,0,1.67-9.12-3.47-16.48-9.89-6.35-5.54-11.33-12.34-8.66-12.82Z"/>
        <path class="cls-33" d="M103.04,119.32c.56-.56,10.44-1.32,11.27-1.06.84.26.78,1.92.78,3.93,0,2.01-.31,2.98-.79,3.84-.48.87-12.06-.97-12.32-1.74-.26-.77-.14-1.47.12-2.71.26-1.24.38-1.7.93-2.26Z"/>
        <path class="cls-33" d="M67.74,215.72c1.05.01,12.5,4.62,12.5,5.96s-1.37,3.2-3.46,4.95-2.98,2.16-4.31,2c-.69-.08-4.17-1.54-6.73-3.74-2.41-2.08-3.93-4.91-4.05-5.37-.24-.94,1.18-1.67,2.74-2.66,1.73-1.1,2.26-1.15,3.31-1.14Z"/>
        <path class="cls-41" d="M90.54,190.82c14.34-6.18,29.91-4.39,29.91-4.39h0s-15.57-.49-29.91,5.69c-14.34,6.17-27.44,19.01-27.44,19.01,0,0,13.1-14.13,27.44-20.31Z"/>
        <path class="cls-72" d="M89.7,126.03s8.03,6.64,17.35,12.32c9.32,5.68,19.94,10.4,19.94,10.4,0,0-10.42-2.95-19.74-8.63s-17.55-14.09-17.55-14.09Z"/>
        <path class="cls-43" d="M147.24,167.16c-2.78-4.24-3.46-8.7-1.53-9.96,1.93-1.26,5.74,1.15,8.52,5.38,2.78,4.24,3.46,8.7,1.53,9.96-1.93,1.26-5.74-1.15-8.52-5.39Z"/>
        <path class="cls-47" d="M148.49,166.28c-1.75-2.71-2.2-5.53-1-6.31s3.6.79,5.35,3.49c1.75,2.71,2.2,5.54,1,6.32-1.2.78-3.6-.79-5.35-3.5Z"/>
        <path class="cls-45" d="M72.36,158.26c1.24-3.64,6.18-4.46,5.88,1.24,3.82-5.3,6.89-.96,5.64,2.69s-5.61,7.64-8.8,6.56-3.97-6.84-2.73-10.49Z"/>
        <path class="cls-25" d="M72.36,158.26c.21-.61.52-1.14.89-1.57.43-.5.94-.88,1.48-1.09.26-.11.68-.22.94-.22s.62.06,1.05.2c.48.15.82.7.82.7,0,0-2.38-.3-3.68,1.3-.75.93-1.29,2.78-1.4,4.01-.12,1.38.09,3.86.68,5,.83,1.61,2.16,2.23,2.16,2.23,0,0-.51-.11-.97-.42-.39-.26-.69-.58-.78-.68-.62-.74-1.14-1.71-1.42-2.83-.54-2.13-.42-4.72.23-6.61Z"/>
        <path class="cls-46" d="M55.3,148.22c2.68-3.27,6.73-4.39,9.03-2.5,2.31,1.89,2.14,4.58-3.75,8.15-3.62,2.19-6.94,9.82-9.24,7.93s1.28-10.3,3.96-13.57Z"/>
        <path class="cls-46" d="M65.4,138.96c1.21-1.23,4.35-2.21,5.53-1.04,1.18,1.16-.39,3.56-1.6,4.79-1.21,1.23-3.07,1.53-4.25.37-1.18-1.16-.89-2.89.32-4.11Z"/>
        <path class="cls-48" d="M94.04,200.76c0-3.34,2.7-6.04,6.04-6.04s6.04,2.7,6.04,6.04-2.7,6.04-6.04,6.04-6.04-2.7-6.04-6.04Z"/>
        <path class="cls-62" d="M92.98,199.79c0-3.34,2.7-6.04,6.04-6.04s6.04,2.7,6.04,6.04-2.7,6.04-6.04,6.04-6.04-2.7-6.04-6.04Z"/>
        <path class="cls-48" d="M92.48,211.13c0-2.03,1.65-3.68,3.68-3.68s3.68,1.65,3.68,3.68-1.65,3.68-3.68,3.68-3.68-1.65-3.68-3.68Z"/>
        <path class="cls-51" d="M91.67,210.47c0-2.03,1.65-3.68,3.68-3.68s3.68,1.65,3.68,3.68-1.65,3.68-3.68,3.68-3.68-1.65-3.68-3.68Z"/>
        <path class="cls-40" d="M95.23,199.79c0-2.09,1.7-3.78,3.79-3.78s3.78,1.69,3.78,3.78-1.7,3.78-3.78,3.78-3.79-1.69-3.79-3.78Z"/>
        <path class="cls-40" d="M92.92,210.47c0-1.34,1.08-2.42,2.42-2.42s2.42,1.08,2.42,2.42-1.08,2.42-2.42,2.42-2.42-1.08-2.42-2.42Z"/>
      </g>
    </g>
  </svg>